<?xml version="1.0" standalone="no"?>
<!DOCTYPE svg PUBLIC "-//W3C//DTD SVG 20010904//EN"
 "http://www.w3.org/TR/2001/REC-SVG-20010904/DTD/svg10.dtd">
<svg version="1.0" xmlns="http://www.w3.org/2000/svg"
 width="1200.000000pt" height="600.000000pt" viewBox="0 0 1200.000000 600.000000"
 preserveAspectRatio="xMidYMid meet">

<g transform="translate(0.000000,600.000000) scale(0.100000,-0.100000)"
fill="#000000" stroke="none">
<path d="M4958 5379 c-132 -19 -230 -110 -252 -232 -8 -41 -17 -334 -18 -585
-1 -133 -3 -150 -15 -133 -19 28 -74 41 -178 41 l-90 0 40 -27 c22 -14 42 -29
45 -32 9 -11 55 -38 62 -37 3 1 17 -8 30 -20 33 -29 75 -54 91 -54 11 0 13
-54 12 -312 -2 -172 -5 -349 -7 -393 -3 -44 -1 -85 3 -90 4 -6 9 -439 10 -963
1 -734 -1 -955 -10 -966 -22 -26 -83 -39 -184 -39 -65 0 -96 -4 -94 -11 2 -7
31 -11 70 -10 37 1 64 -3 61 -7 -7 -12 17 -11 36 1 11 7 17 5 22 -8 5 -13 7
-12 7 7 1 20 3 22 16 11 13 -11 14 -10 9 5 -6 14 -4 16 7 9 8 -4 20 -9 27 -10
18 -3 22 -7 28 -35 11 -46 13 -86 14 -419 2 -197 6 -343 12 -354 7 -13 7 -16
-1 -12 -16 10 35 -128 62 -169 50 -73 157 -125 260 -125 23 0 36 -4 32 -10 -3
-6 -31 -10 -62 -10 -31 0 -54 -2 -52 -4 13 -12 245 -16 1004 -16 990 1 1225 6
1240 30 3 5 -1 15 -9 22 -12 11 -9 17 16 38 17 14 31 35 32 45 1 11 12 40 25
64 53 102 52 90 56 645 3 414 6 521 17 527 10 7 10 9 0 9 -9 0 -12 13 -10 41
2 36 6 42 37 55 20 9 44 16 54 17 9 1 17 5 17 9 0 12 62 48 83 48 22 0 81 26
119 52 14 10 29 18 32 18 3 0 6 -30 6 -67 0 -63 32 -310 46 -360 6 -22 3 -23
-47 -24 -30 -1 -62 -1 -71 0 -10 1 -18 -2 -18 -8 0 -6 8 -7 17 -4 13 5 15 2
10 -11 -7 -18 -8 -18 51 -1 13 4 22 2 22 -5 0 -6 5 -8 10 -5 6 4 8 10 6 14 -3
3 4 7 14 7 14 0 16 -4 9 -12 -8 -9 -4 -11 13 -7 13 3 29 13 37 22 13 15 13 15
8 -1 -3 -10 1 -19 10 -22 19 -8 45 12 36 27 -3 6 -1 7 5 3 9 -5 9 -13 1 -29
-12 -21 -11 -21 8 -5 18 16 21 16 42 1 23 -15 23 -15 16 8 -5 18 -4 20 4 9 12
-17 72 -20 84 -5 6 6 10 6 14 -2 7 -19 33 -15 33 5 0 15 -2 15 -11 2 -8 -12
-10 -12 -7 -1 2 8 11 15 20 17 10 1 15 -3 12 -11 -3 -7 1 -14 8 -17 20 -7 82
-3 97 6 8 5 17 3 22 -5 7 -11 9 -11 9 -1 0 8 5 10 12 6 8 -5 9 -2 4 11 -5 15
-4 16 9 5 8 -7 13 -15 11 -19 -3 -4 4 -8 16 -8 14 -1 18 3 14 13 -4 10 -2 13
7 7 19 -12 40 -13 53 -2 7 6 16 4 24 -6 10 -12 16 -13 28 -3 13 10 14 10 8 1
-4 -7 -3 -13 2 -13 17 0 22 13 9 29 -6 8 0 6 15 -5 18 -14 36 -19 57 -16 17 2
29 8 26 12 -6 10 36 0 52 -12 7 -5 18 -6 25 -2 17 11 32 12 39 1 3 -4 18 -3
33 3 15 5 25 6 21 1 -3 -6 4 -9 15 -8 11 1 20 6 20 12 0 7 3 7 8 -1 4 -5 28
-10 55 -10 38 0 46 3 42 16 -4 13 -4 13 7 0 14 -16 75 -20 97 -6 9 6 12 5 7
-2 -4 -6 1 -10 13 -9 12 1 17 6 13 15 -4 12 -1 12 15 1 23 -14 58 -5 48 12 -4
6 -29 9 -58 8 -42 -3 -52 0 -59 16 -7 20 -8 20 -7 0 2 -36 -1 -46 -12 -40 -6
4 -8 13 -5 20 3 8 -2 11 -15 8 -11 -3 -16 -10 -12 -17 4 -6 -1 -5 -10 2 -12
10 -48 14 -127 13 -60 -1 -110 1 -110 3 0 3 29 49 64 103 66 101 145 183 177
183 10 0 43 -13 74 -30 30 -16 55 -26 55 -22 0 4 6 0 13 -8 16 -20 53 -40 72
-40 8 0 15 -4 15 -10 0 -5 -8 -7 -17 -3 -10 3 -3 -6 16 -21 35 -26 45 -30 70
-27 7 2 10 -2 6 -8 -3 -6 -1 -11 6 -11 7 0 9 -3 6 -6 -3 -4 4 -15 17 -25 27
-22 44 -25 28 -6 -11 13 -12 17 -12 42 0 8 -7 15 -15 15 -17 0 -20 25 -5 35 6
4 15 -7 21 -24 10 -27 59 -72 59 -54 0 5 5 0 11 -11 9 -14 13 -15 19 -6 6 9
11 6 20 -10 10 -18 10 -21 -1 -14 -7 4 -26 9 -43 11 l-29 3 37 -29 c21 -17 32
-32 26 -36 -5 -3 -10 0 -10 7 0 9 -3 9 -10 -2 -15 -23 -12 -27 16 -27 15 0 31
-7 36 -14 8 -11 9 -10 5 3 -3 9 -1 18 5 20 6 2 4 11 -6 21 -10 9 -12 17 -6 17
6 0 13 -6 16 -14 3 -8 13 -12 22 -10 13 4 13 3 -2 -6 -15 -10 -16 -14 -5 -21
22 -14 29 -11 29 12 0 19 -25 54 -39 54 -3 0 -32 27 -64 60 -33 33 -64 60 -70
60 -7 1 -11 6 -10 12 1 7 -11 9 -34 6 -24 -3 -33 -1 -29 6 5 7 -1 11 -14 11
-12 0 -19 4 -15 9 3 5 1 12 -5 16 -5 3 -10 11 -10 17 0 6 11 1 25 -12 14 -13
25 -19 25 -13 0 14 -25 34 -47 37 -10 2 -17 10 -17 19 2 22 -52 33 -74 15 -15
-12 -16 -11 -3 4 11 15 11 18 0 18 -11 0 -11 2 1 9 8 6 18 7 23 4 5 -3 12 -1
16 5 8 13 78 -10 100 -34 9 -9 10 -14 4 -10 -7 4 -13 5 -13 3 0 -3 23 -19 50
-37 28 -18 50 -38 50 -46 0 -8 4 -14 8 -14 11 0 92 -77 92 -88 0 -5 12 -14 28
-21 25 -12 -45 67 -158 176 -31 31 -32 34 -11 28 13 -4 63 -25 110 -47 47 -21
81 -35 76 -29 -16 16 -268 141 -284 141 -8 0 -85 23 -170 51 -86 28 -179 57
-207 65 -90 23 -326 63 -409 69 -44 2 -111 8 -150 11 -87 8 -134 11 -209 13
-36 0 -56 5 -50 10 19 18 108 42 182 48 97 8 144 40 198 135 l39 67 22 -21
c24 -22 133 -40 133 -21 0 5 -16 22 -35 37 -19 15 -33 31 -32 35 4 14 -82 79
-113 86 -30 7 -43 35 -15 35 22 0 18 17 -7 34 -18 12 -32 13 -68 5 -25 -6 -72
-8 -105 -5 -65 5 -78 1 -88 -26 -3 -10 -14 -18 -23 -18 -21 0 -154 59 -171 76
-8 7 -40 18 -73 25 -33 6 -58 15 -55 19 2 4 -6 5 -18 3 -13 -3 -67 7 -121 21
-55 14 -121 29 -147 32 -45 6 -49 9 -50 35 -1 16 -2 35 -3 42 -1 6 6 20 16 30
14 13 22 15 36 8 16 -10 16 -10 0 -11 -10 0 -18 -4 -18 -10 0 -5 14 -10 31
-10 19 0 28 -4 23 -11 -4 -7 1 -7 16 1 16 9 24 9 29 1 10 -15 60 -10 74 8 9
12 9 13 0 7 -12 -7 -53 9 -63 25 -3 5 -36 9 -72 11 -37 1 -65 5 -62 9 2 4 0
10 -6 14 -20 12 -11 45 12 45 22 0 22 0 3 14 -17 11 -20 23 -17 61 3 26 7 43
11 38 8 -13 73 -35 66 -23 -4 6 4 10 17 11 19 0 16 4 -17 20 -22 10 -47 19
-56 19 -11 0 -19 11 -22 33 -7 41 -5 287 2 287 17 0 361 -154 361 -162 0 -5 4
-7 9 -4 5 4 108 -36 228 -87 120 -52 297 -127 393 -167 96 -41 190 -82 208
-90 l33 -16 -45 -42 c-25 -23 -78 -57 -119 -76 -48 -23 -78 -44 -87 -61 -12
-23 -19 -26 -45 -20 -72 17 -80 17 -70 7 6 -5 27 -15 48 -22 20 -6 50 -25 66
-41 16 -16 36 -29 45 -29 8 0 18 -5 22 -12 5 -7 0 -9 -14 -6 -18 5 -20 3 -11
-19 17 -44 30 -64 40 -58 5 4 9 0 9 -8 0 -9 10 -14 25 -14 31 0 32 12 1 40
-13 12 -26 32 -30 44 -7 21 -5 23 41 21 108 -3 153 2 153 16 0 9 7 12 20 9 18
-5 20 0 20 39 0 32 -4 45 -15 45 -8 0 -12 -4 -9 -9 3 -4 0 -8 -5 -8 -6 0 -11
6 -11 14 0 10 -7 12 -22 8 -21 -5 -21 -5 -2 17 45 51 107 111 116 111 10 0
397 -163 513 -215 158 -72 268 -120 415 -183 220 -93 427 -185 500 -222 l60
-30 0 50 c0 39 4 52 18 57 9 3 26 13 36 22 14 12 17 12 11 2 -6 -11 -4 -13 10
-8 9 4 25 2 33 -5 13 -11 15 -10 10 3 -4 9 -1 22 5 29 9 10 9 11 0 6 -6 -3
-14 -2 -18 4 -3 5 -1 11 4 11 6 1 15 2 20 3 5 0 13 5 18 10 5 5 3 6 -4 2 -7
-4 -13 -3 -13 3 0 6 -7 7 -17 4 -9 -4 -14 -2 -11 3 2 5 -6 20 -19 34 -13 13
-22 18 -20 10 2 -8 2 -12 0 -7 -3 4 -9 4 -15 1 -5 -3 -2 8 6 25 9 17 21 31 27
31 6 0 7 -5 4 -10 -9 -14 16 -8 33 8 8 7 11 19 8 27 -3 8 -2 14 2 12 4 -1 8 3
10 8 4 16 -37 18 -56 3 -14 -10 -13 -8 1 9 11 12 16 27 12 32 -3 6 2 11 12 11
15 0 16 2 3 10 -12 8 -12 10 5 10 16 0 17 2 5 10 -32 20 -80 64 -80 73 0 6 8
3 18 -6 10 -10 22 -17 26 -17 10 0 39 30 29 30 -4 0 0 5 10 11 9 5 17 15 17
20 0 6 -4 8 -9 5 -5 -3 -12 2 -15 11 -6 15 -8 15 -16 3 -8 -13 -10 -12 -10 3
0 10 -4 15 -10 12 -6 -3 -10 5 -10 19 0 13 -6 27 -12 29 -10 4 -10 6 -1 6 6 1
15 -4 18 -10 5 -7 13 -5 24 5 15 14 18 14 18 1 0 -8 -5 -11 -10 -8 -6 3 -7 1
-4 -5 4 -5 16 -8 27 -5 16 4 18 8 9 19 -14 17 2 18 21 2 10 -9 9 -6 -2 12 -14
22 -22 26 -59 21 -5 0 -7 -5 -4 -11 3 -5 1 -10 -4 -10 -13 0 -15 37 -2 42 5 1
11 10 13 18 3 16 41 50 56 50 5 0 15 6 21 14 9 11 25 13 58 9 43 -5 95 5 153
30 14 5 34 11 46 11 11 1 27 6 35 12 21 18 79 28 79 14 0 -6 5 -8 10 -5 6 4 8
10 5 15 -3 4 11 7 30 6 25 -1 34 2 31 11 -3 7 -2 12 2 11 13 -3 87 14 107 25
11 6 40 11 65 13 25 1 52 4 60 7 8 3 31 8 50 10 19 3 66 12 105 21 38 9 98 19
133 22 46 5 67 12 75 25 9 14 24 19 56 19 39 0 42 -2 30 -16 -12 -15 -9 -16
31 -9 25 4 48 12 51 17 4 6 9 6 14 -2 6 -9 9 -9 15 0 6 9 13 9 28 1 23 -12 20
-41 -5 -41 -8 0 -11 -5 -8 -10 9 -14 -7 -12 -29 5 -16 12 -23 12 -49 -1 -16
-9 -32 -12 -36 -7 -9 12 -39 15 -45 4 -4 -5 -2 -12 4 -16 5 -3 10 -1 10 5 0 6
5 8 10 5 6 -4 8 -11 5 -16 -4 -5 2 -6 11 -2 13 5 16 3 11 -10 -8 -23 20 -10
34 14 14 27 36 24 65 -8 14 -16 30 -28 36 -28 5 0 16 -8 23 -18 15 -21 23 -12
20 20 -1 18 1 20 12 11 11 -8 12 -7 7 6 -3 9 -1 16 4 16 6 0 13 -8 15 -17 3
-10 5 39 6 109 1 104 -2 126 -13 122 -8 -3 -15 3 -18 14 -5 16 -11 18 -34 14
l-29 -7 28 -3 c15 -2 27 -7 27 -12 0 -12 -37 -23 -50 -15 -5 3 -10 1 -10 -6 0
-7 -10 -9 -30 -6 -16 4 -32 2 -35 -3 -3 -5 -13 -6 -22 -3 -9 3 -21 0 -27 -8
-12 -14 -51 -39 -62 -39 -4 0 0 8 7 17 12 15 12 16 -4 10 -10 -4 -23 -7 -28
-7 -6 0 -8 -3 -6 -7 3 -5 -2 -15 -11 -23 -14 -13 -15 -12 -9 2 3 10 -1 22 -11
30 -11 9 -14 9 -8 1 5 -9 2 -11 -8 -7 -9 3 -13 11 -9 16 4 7 -6 9 -28 5 -58
-11 -210 -22 -291 -22 -58 0 -78 -3 -78 -13 0 -9 -7 -11 -21 -7 -13 4 -24 2
-29 -4 -5 -9 -14 -9 -36 0 l-29 13 25 4 c38 6 45 19 9 17 -29 -2 -30 -1 -14
12 22 15 71 18 80 4 9 -15 45 -9 45 7 0 11 -3 12 -14 3 -10 -8 -16 -9 -21 -1
-5 8 7 12 31 9 4 0 11 5 16 13 7 9 8 5 4 -12 -4 -22 -4 -23 8 -7 14 18 46 23
46 7 0 -5 -5 -10 -12 -10 -6 0 -8 -3 -4 -7 4 -5 14 1 22 11 8 11 14 14 14 8 0
-7 7 -12 16 -12 9 0 12 5 8 12 -5 7 -2 9 8 6 8 -4 21 -2 29 4 11 8 10 9 -3 4
-13 -4 -18 0 -18 14 0 23 12 31 62 40 30 6 38 5 34 -6 -3 -7 2 -18 10 -25 13
-11 14 -9 9 14 -5 18 -3 27 5 27 7 0 10 -7 6 -15 -3 -8 -1 -15 5 -15 6 0 6 -8
-1 -22 -10 -21 -10 -21 3 -6 10 12 17 14 24 7 8 -8 17 -8 32 0 26 15 27 30 2
28 -11 0 -17 -5 -14 -11 4 -5 -1 -7 -11 -3 -10 4 -20 7 -22 7 -14 0 -1 41 16
50 15 8 18 8 14 -3 -3 -8 10 -20 31 -30 20 -10 34 -13 31 -8 -4 5 -2 12 4 16
5 3 10 0 10 -8 0 -18 44 -11 61 9 6 8 16 14 22 14 5 0 15 7 21 15 9 13 11 11
13 -12 1 -16 -4 -34 -10 -42 -10 -12 -9 -12 11 -2 17 9 22 19 19 33 -6 23 11
67 27 69 22 2 31 5 61 18 41 18 78 24 71 12 -4 -5 -1 -13 5 -17 8 -4 9 -3 5 4
-4 7 -2 12 4 12 6 0 8 5 4 11 -4 8 -1 8 13 1 23 -13 22 -20 23 127 0 110 -6
130 -36 113 -14 -8 -21 -6 -31 6 -11 16 -12 16 -13 0 0 -13 -8 -18 -26 -18
-14 0 -23 -4 -20 -8 3 -5 -1 -9 -7 -9 -7 0 -14 9 -14 19 -1 12 3 16 10 12 7
-4 8 -3 4 2 -5 5 -13 10 -18 10 -5 1 -14 2 -20 3 -5 0 -7 6 -4 11 4 6 10 8 15
5 5 -3 11 -1 15 4 5 10 -37 6 -59 -5 -6 -3 -3 1 6 8 15 13 15 15 0 26 -9 7
-11 10 -4 6 11 -5 12 -2 3 14 -9 18 -16 20 -36 12 -14 -5 -25 -7 -25 -3 0 4
-7 -2 -15 -13 -9 -12 -14 -14 -15 -6 0 7 -4 10 -10 7 -5 -3 -10 -1 -10 4 0 6
5 11 10 11 6 0 10 4 10 10 0 5 -4 9 -9 7 -4 -1 -17 8 -27 20 -14 17 -25 21
-42 17 -19 -6 -22 -11 -17 -38 5 -23 1 -39 -13 -56 -23 -30 -19 -54 7 -41 10
6 23 6 32 0 7 -5 26 -9 41 -9 17 0 38 -12 57 -32 31 -33 40 -58 21 -58 -5 0
-10 -7 -10 -15 0 -9 -12 -18 -30 -22 -17 -3 -36 -13 -43 -23 -7 -9 -30 -21
-52 -27 -54 -15 -103 -32 -141 -50 -20 -9 -43 -12 -66 -8 -22 4 -38 3 -42 -4
-4 -6 -24 -11 -44 -11 -20 0 -44 -5 -52 -10 -11 -8 -7 -9 15 -5 29 6 29 6 11
-9 -11 -9 -23 -16 -27 -16 -4 0 -6 -8 -4 -17 2 -10 4 -18 5 -18 1 0 3 -12 4
-27 1 -19 -3 -28 -14 -28 -13 0 -13 -1 0 -10 12 -7 7 -12 -21 -24 -62 -26 -85
-29 -101 -12 -9 8 -18 13 -21 10 -3 -3 -10 3 -16 14 -8 15 -8 21 1 24 7 3 2 7
-10 10 -16 4 -22 2 -22 -9 0 -9 -6 -13 -15 -9 -8 3 -15 1 -15 -4 0 -5 -7 -7
-15 -4 -8 4 -15 1 -15 -5 0 -6 -11 -11 -25 -11 -14 0 -25 -4 -25 -9 0 -5 -10
-11 -22 -14 -20 -6 -19 -4 5 16 l28 22 -24 0 c-14 0 -23 -3 -20 -7 2 -5 -6 -8
-19 -8 -19 0 -20 2 -8 11 12 8 11 9 -5 5 -11 -3 -46 -6 -77 -7 -32 -1 -58 -6
-58 -10 0 -5 -8 -5 -17 -2 -15 6 -16 4 -5 -9 10 -13 10 -18 1 -24 -8 -5 -9 -3
-4 6 6 10 4 12 -9 7 -10 -4 -15 -3 -11 3 8 14 2 13 -31 -5 -35 -18 -54 -18
-116 -2 -43 12 -45 14 -28 25 11 7 20 17 20 24 0 6 7 20 16 29 16 17 15 18
-17 9 -19 -6 -36 -10 -39 -10 -3 0 2 -5 10 -10 12 -8 10 -9 -7 -7 -12 2 -26 7
-30 11 -5 4 -2 6 6 4 10 -2 20 14 30 48 12 38 20 50 34 48 9 -1 14 2 11 7 -3
6 -15 9 -27 7 -12 -2 -22 2 -22 9 0 6 -15 25 -34 42 -27 24 -32 33 -22 44 9
11 8 17 -2 25 -8 7 -13 29 -13 51 1 21 -2 37 -6 34 -5 -2 -8 6 -8 19 -4 242
-4 243 -56 211 -11 -7 -24 -10 -27 -6 -4 3 -7 2 -7 -4 0 -17 13 -23 27 -12 9
9 13 8 13 0 0 -6 -4 -11 -9 -11 -11 0 -9 -19 4 -40 7 -12 6 -13 -7 -3 -8 7
-17 10 -20 7 -3 -2 -8 2 -12 11 -3 9 -2 13 4 10 6 -3 10 -1 10 4 0 6 -10 11
-22 11 -18 0 -20 2 -8 10 12 8 12 10 -3 16 -9 3 -15 10 -12 15 3 4 12 6 19 3
8 -3 17 0 21 5 3 6 11 8 17 5 7 -4 8 -2 4 5 -6 9 -11 9 -21 1 -8 -7 -19 -9
-24 -6 -5 4 -12 2 -16 -4 -3 -5 -11 -10 -18 -10 -8 0 -8 3 1 12 20 20 14 30
-6 11 -10 -10 -17 -25 -14 -33 3 -13 2 -13 -6 -1 -6 8 -8 20 -5 28 3 7 0 20
-7 28 -10 12 -10 15 0 15 8 0 10 3 7 6 -8 8 -37 -14 -37 -28 0 -6 8 -7 18 -3
14 5 15 4 4 -7 -11 -11 -15 -10 -25 3 -7 9 -18 14 -25 11 -10 -3 -10 -7 -1
-18 7 -8 9 -17 5 -21 -3 -3 -6 -2 -6 4 0 6 -14 9 -30 8 -30 -3 -30 -2 -14 16
10 11 14 22 9 27 -4 4 -10 1 -12 -6 -5 -13 -23 -7 -23 9 0 6 5 7 10 4 6 -3 10
-1 10 4 0 6 -6 11 -12 11 -9 0 -8 4 2 10 9 6 10 10 3 10 -6 0 -18 -7 -27 -15
-8 -8 -19 -15 -25 -15 -6 0 -11 -5 -11 -12 0 -6 -3 -8 -6 -5 -4 4 -1 13 5 21
9 11 9 16 0 22 -8 5 -9 3 -4 -6 6 -10 4 -12 -9 -7 -10 4 -15 3 -11 -3 4 -6 -9
-9 -33 -8 -21 0 -47 -4 -58 -10 -12 -8 -14 -11 -5 -12 8 0 11 -3 8 -6 -4 -4
-13 -1 -22 6 -13 11 -19 10 -37 -6 -12 -11 -18 -13 -14 -6 4 6 2 12 -3 12 -6
0 -11 -5 -11 -11 0 -5 -4 -7 -10 -4 -14 9 -13 18 6 41 8 10 13 14 10 7 -11
-22 10 -22 80 -2 128 37 259 81 269 90 5 5 17 9 27 9 10 0 18 3 18 8 0 4 16 7
36 8 20 0 40 7 45 15 5 8 9 9 9 3 0 -9 11 -9 38 -2 l37 9 -5 127 c-5 114 -8
131 -32 172 -16 28 -43 55 -70 70 l-43 25 -538 3 c-347 2 -536 -1 -533 -7 4
-5 -2 -14 -11 -20 -11 -6 -13 -11 -5 -11 14 0 42 -24 42 -36 0 -4 -9 1 -20 11
-18 16 -20 16 -20 2 0 -10 5 -17 11 -17 5 0 7 -5 4 -10 -4 -6 -10 -8 -15 -5
-4 3 -6 -5 -2 -17 3 -14 2 -19 -6 -14 -7 4 -12 2 -12 -3 0 -6 5 -11 11 -11 5
0 7 -5 3 -12 -4 -7 -3 -8 4 -4 7 4 12 1 12 -8 0 -34 -37 -15 -69 34 -53 82
-91 98 -133 58 -13 -13 -17 -17 -8 -10 37 27 106 -3 91 -41 -6 -17 -7 -17 -27
0 -12 10 -23 25 -27 33 -4 12 -6 11 -6 -2 -1 -10 -7 -18 -15 -18 -21 0 -55
-47 -62 -87 -4 -20 -10 -30 -14 -23 -4 6 -6 -5 -5 -25 1 -20 5 -39 9 -42 3 -3
6 -19 6 -35 0 -15 5 -28 10 -28 6 0 10 -6 10 -13 0 -7 9 -31 19 -53 11 -21 17
-42 14 -46 -2 -5 1 -8 6 -8 6 0 11 -9 11 -20 0 -11 -7 -20 -15 -20 -8 0 -15 4
-15 10 0 5 -12 13 -26 16 -17 4 -23 11 -20 21 3 8 6 17 6 19 0 3 5 2 12 -2 6
-4 4 3 -5 17 -9 13 -17 30 -17 38 0 9 -25 66 -55 127 -30 62 -55 117 -55 124
0 6 -5 8 -11 4 -9 -5 -10 4 -4 32 8 45 13 56 24 50 4 -3 21 8 36 24 23 24 25
30 12 30 -10 0 -20 -7 -23 -15 -4 -8 -10 -13 -14 -10 -9 5 -43 -38 -52 -65 -3
-8 -9 2 -13 23 -6 31 -4 41 11 52 17 13 -55 14 -561 12 -574 -2 -580 -2 -617
-24 l-36 -21 -4 361 c-5 419 -7 427 -92 513 -96 96 -6 89 -1176 90 -564 1
-1051 -2 -1082 -7z m2142 -60 c84 -18 132 -72 146 -166 6 -43 7 -45 19 -23 11
21 12 21 20 4 11 -23 13 -1094 3 -1094 -5 0 -8 140 -8 312 0 171 -2 309 -4
307 -11 -11 -16 -505 -21 -2134 -3 -974 -7 -1802 -9 -1841 -4 -98 -36 -153
-109 -188 l-53 -26 -1089 2 c-1046 3 -1092 4 -1128 22 -21 10 -49 35 -63 55
-13 19 -24 31 -24 26 0 -6 -5 -3 -10 5 -6 9 -10 746 -10 1995 0 1302 -4 1981
-10 1983 -6 2 -10 8 -10 13 0 6 5 7 10 4 6 -4 10 15 10 50 0 35 -4 54 -10 50
-7 -4 -11 71 -12 217 -1 163 -3 199 -8 133 l-6 -90 -2 102 c-2 81 2 113 18
156 19 50 80 126 80 99 0 -7 -4 -12 -9 -12 -5 0 -12 -8 -16 -17 -4 -12 3 -9
22 9 60 57 43 57 1185 57 720 1 1063 -2 1098 -10z m116 -41 c12 -12 27 -34 33
-48 l12 -25 -18 25 c-10 14 -33 40 -53 59 -19 18 -26 29 -15 23 11 -6 30 -21
41 -34z m-2489 -830 c-1 -90 -3 -19 -3 157 0 176 2 249 3 163 2 -86 2 -230 0
-320z m20 150 c-3 -7 -5 -2 -5 12 0 14 2 19 5 13 2 -7 2 -19 0 -25z m0 -155
c-3 -10 -5 -4 -5 12 0 17 2 24 5 18 2 -7 2 -21 0 -30z m-60 -65 c-3 -8 -6 -5
-6 6 -1 11 2 17 5 13 3 -3 4 -12 1 -19z m4290 -23 c0 -11 -4 -12 -14 -4 -7 6
-13 13 -13 15 0 2 6 4 13 4 8 0 14 -7 14 -15z m-102 -65 c-3 -5 -1 -11 5 -15
13 -8 13 -25 0 -25 -5 0 -10 5 -10 11 0 6 -11 20 -24 30 -17 13 -22 25 -18 41
5 21 6 21 29 -6 13 -15 21 -31 18 -36z m78 46 c4 -10 1 -13 -8 -9 -8 3 -12 9
-9 14 7 12 11 11 17 -5z m-4226 -88 c-3 -7 -5 -2 -5 12 0 14 2 19 5 13 2 -7 2
-19 0 -25z m4235 -6 c-10 -3 -10 -7 0 -20 12 -15 11 -15 -4 -4 -18 14 -13 47
5 35 8 -5 7 -8 -1 -11z m-42 -12 c12 -8 12 -10 1 -10 -11 0 -11 -3 0 -17 11
-15 10 -14 -9 1 -33 29 -27 49 8 26z m-4193 -197 c-2 -37 -3 -9 -3 62 0 72 1
102 3 68 2 -34 2 -93 0 -130z m4227 149 c3 -5 -1 -9 -9 -9 -8 0 -12 4 -9 9 3
4 7 8 9 8 2 0 6 -4 9 -8z m279 -67 c-3 -9 -8 -14 -10 -11 -3 3 -2 9 2 15 9 16
15 13 8 -4z m894 -10 c0 -8 -4 -12 -9 -9 -5 3 -6 10 -3 15 9 13 12 11 12 -6z
m-919 -40 c-6 -14 -15 -25 -19 -25 -4 0 -2 11 4 25 7 14 15 25 19 25 4 0 2
-11 -4 -25z m-535 -19 c4 -11 1 -13 -10 -9 -13 5 -15 2 -9 -13 6 -15 5 -16 -5
-7 -10 10 -9 15 1 28 15 19 16 19 23 1z m1257 -11 c0 -8 -2 -15 -4 -15 -2 0
-6 7 -10 15 -3 8 -1 15 4 15 6 0 10 -7 10 -15z m-2638 -35 c3 -16 1 -30 -4
-30 -4 0 -8 14 -8 30 0 17 2 30 4 30 2 0 6 -13 8 -30z m1863 -45 c-14 -26 -25
-54 -25 -61 0 -8 -6 -14 -12 -15 -10 0 -10 -2 0 -6 6 -2 12 -9 12 -14 0 -6 -5
-7 -11 -4 -10 7 -46 -33 -42 -46 1 -3 -19 -23 -44 -45 -25 -21 -63 -54 -84
-73 l-39 -33 0 30 c0 25 5 30 30 35 45 9 100 66 154 158 70 121 77 131 82 126
3 -2 -7 -26 -21 -52z m-525 5 c0 -10 -39 -9 -45 1 -3 5 1 6 9 3 11 -4 16 0 16
12 0 16 2 17 10 4 5 -8 10 -17 10 -20z m1104 22 c3 -5 -1 -9 -9 -9 -8 0 -12 4
-9 9 3 4 7 8 9 8 2 0 6 -4 9 -8z m-1069 -13 c11 -16 1 -19 -13 -3 -7 8 -8 14
-3 14 5 0 13 -5 16 -11z m273 -19 c27 -37 28 -49 2 -25 -11 10 -20 24 -20 31
0 7 -6 15 -12 17 -7 3 -8 6 -2 6 5 1 20 -12 32 -29z m751 15 c-18 -18 -59 -28
-59 -14 0 5 3 9 8 10 22 2 45 8 50 13 3 3 8 6 11 6 3 0 -2 -7 -10 -15z m-4962
-27 c-3 -8 -6 -5 -6 6 -1 11 2 17 5 13 3 -3 4 -12 1 -19z m2560 -45 c-2 -16
-4 -5 -4 22 0 28 2 40 4 28 2 -13 2 -35 0 -50z m1420 35 c-3 -8 -6 -5 -6 6 -1
11 2 17 5 13 3 -3 4 -12 1 -19z m-70 -2 c12 2 28 5 34 6 6 2 13 -3 15 -10 1
-7 0 -8 -3 -2 -2 5 -8 8 -12 5 -24 -14 -70 -14 -82 2 -13 14 -12 15 6 6 11 -6
30 -9 42 -7z m936 -26 c-5 -19 -38 -37 -57 -31 -12 3 -54 -17 -80 -39 -11 -8
-16 -9 -12 -2 9 15 6 15 -37 -3 -23 -10 -38 -11 -42 -5 -4 6 -3 10 2 9 19 -3
34 2 29 10 -3 4 2 8 12 8 24 -1 72 14 72 22 0 4 11 8 25 9 39 3 47 6 67 25 23
22 27 22 21 -3z m-898 0 c3 -6 -4 -10 -17 -10 -18 0 -20 2 -8 10 19 12 18 12
25 0z m215 -57 c0 -3 -8 1 -18 10 -10 10 -22 14 -25 10 -4 -3 -7 4 -7 17 l0
23 25 -27 c14 -15 25 -30 25 -33z m-1603 -5 c-3 -8 -6 -5 -6 6 -1 11 2 17 5
13 3 -3 4 -12 1 -19z m2567 13 c3 -5 -2 -15 -12 -22 -15 -13 -16 -12 -4 3 10
13 10 17 0 21 -9 4 -9 6 -1 6 6 1 14 -3 17 -8z m96 -6 c0 -8 -4 -15 -10 -15
-5 0 -7 7 -4 15 4 8 8 15 10 15 2 0 4 -7 4 -15z m-1130 -15 c-6 -11 -15 -20
-20 -20 -6 0 -10 -9 -10 -19 0 -11 -4 -23 -10 -26 -5 -3 -10 -2 -10 4 0 6 -8
8 -17 5 -10 -3 2 12 27 35 52 47 54 48 40 21z m1085 10 c3 -6 -1 -7 -9 -4 -18
7 -21 14 -7 14 6 0 13 -4 16 -10z m235 -15 c-8 -9 -7 -14 2 -18 9 -4 10 -6 1
-6 -14 -1 -35 33 -27 42 3 3 12 3 20 0 11 -4 12 -9 4 -18z m-1296 -20 c-4 -8
-8 -15 -10 -15 -2 0 -4 7 -4 15 0 8 4 15 10 15 5 0 7 -7 4 -15z m560 3 c-5 -7
-21 -24 -38 -38 -45 -38 -80 -74 -91 -94 -10 -18 -11 -17 -11 2 0 12 1 20 3
18 1 -1 33 26 70 61 70 65 80 72 67 51z m-4677 -45 c-3 -10 -5 -2 -5 17 0 19
2 27 5 18 2 -10 2 -26 0 -35z m4580 31 c-3 -3 -12 -4 -19 -1 -8 3 -5 6 6 6 11
1 17 -2 13 -5z m2047 -9 c-4 -8 -11 -15 -16 -15 -6 0 -5 6 2 15 7 8 14 15 16
15 2 0 1 -7 -2 -15z m-4067 -37 c-3 -7 -5 -2 -5 12 0 14 2 19 5 13 2 -7 2 -19
0 -25z m1654 -3 c1 -17 -18 -17 -25 0 -4 11 -1 15 10 13 8 -2 15 -7 15 -13z
m1160 -18 c-10 -9 -11 -8 -5 6 3 10 9 15 12 12 3 -3 0 -11 -7 -18z m1359 -12
c0 -8 -2 -15 -4 -15 -2 0 -6 7 -10 15 -3 8 -1 15 4 15 6 0 10 -7 10 -15z
m-1350 -11 c0 -8 -19 -13 -24 -6 -3 5 1 9 9 9 8 0 15 -2 15 -3z m1382 -23 c15
-18 15 -19 -2 -24 -13 -3 -17 0 -13 9 3 8 0 14 -7 14 -6 0 -8 5 -5 10 8 13 8
13 27 -9z m-2957 -19 c-3 -3 -11 0 -18 7 -9 10 -8 11 6 5 10 -3 15 -9 12 -12z
m405 -12 c-13 -9 -13 -10 0 -11 10 0 8 -3 -5 -9 -18 -8 -17 -9 8 -9 l27 -1
-21 -21 c-29 -29 -18 -34 22 -10 44 27 59 27 30 0 -27 -25 -21 -35 11 -18 19
10 21 10 12 -2 -6 -8 -14 -26 -18 -41 -3 -16 -13 -28 -22 -28 -8 0 -12 -4 -9
-10 3 -5 -1 -10 -9 -10 -8 0 -18 -9 -21 -20 -3 -11 -11 -20 -16 -20 -6 0 -7
-6 -3 -12 4 -7 3 -9 -1 -5 -16 14 -14 40 4 66 10 14 21 34 24 44 4 11 12 15
18 11 8 -4 9 -3 5 4 -8 13 -36 5 -36 -11 0 -25 -11 3 -20 53 -10 54 -4 70 25
70 6 0 3 -5 -5 -10z m313 -17 c-11 -32 -33 -59 -33 -42 0 14 27 59 35 59 3 0
2 -8 -2 -17z m-569 -32 c2 -3 -8 -6 -23 -7 -15 -1 -28 4 -28 11 0 12 44 9 51
-4z m346 -94 c-19 -18 -27 -23 -19 -12 23 31 44 52 48 48 3 -2 -10 -18 -29
-36z m173 26 c-3 -7 -6 -13 -8 -13 -2 0 -5 6 -8 13 -3 8 1 14 8 14 7 0 11 -6
8 -14z m-33 -63 c-20 -40 -41 -46 -39 -12 0 15 1 15 8 -1 6 -15 9 -13 24 17 9
20 19 36 22 36 3 0 -4 -18 -15 -40z m2163 -17 c-7 -2 -13 -13 -13 -24 0 -10
-5 -19 -11 -19 -10 0 -59 -45 -59 -55 0 -2 10 -1 23 1 20 4 20 4 2 -4 -28 -13
-95 6 -95 27 0 14 -2 14 -10 1 -7 -11 -10 -11 -10 -2 0 7 -4 10 -10 7 -5 -3
-10 -1 -10 4 0 6 10 9 23 7 12 -2 29 1 37 7 12 9 13 9 3 -3 -16 -17 -17 -30
-2 -30 5 0 8 4 4 9 -3 5 -1 12 4 16 6 3 8 12 4 20 -3 11 2 15 18 15 13 0 33 7
43 15 11 8 31 15 45 14 14 0 20 -3 14 -6z m267 -35 c0 -10 -9 -9 -35 2 -17 8
-16 8 8 7 15 -1 27 -5 27 -9z m-2698 -30 c-8 -8 -9 -4 -5 13 4 13 8 18 11 10
2 -7 -1 -18 -6 -23z m2620 19 c24 -4 34 -16 11 -13 -10 2 -26 -1 -36 -6 -10
-5 -28 -11 -39 -13 -11 -3 -26 -12 -34 -22 -8 -10 -14 -13 -14 -6 0 7 -6 10
-14 7 -11 -4 -33 24 -24 31 54 37 67 39 150 22z m-2412 -11 c0 -2 -8 -10 -17
-17 -16 -13 -17 -12 -4 4 13 16 21 21 21 13z m-30 -39 c0 -2 -10 -12 -22 -23
l-23 -19 19 23 c18 21 26 27 26 19z m2043 -11 c3 4 14 3 24 -1 10 -5 21 -9 25
-9 17 -2 19 -16 2 -17 -18 0 -18 -1 1 -8 14 -6 2 -10 -44 -15 -34 -4 -74 -12
-88 -17 -40 -15 -38 -4 2 15 19 10 33 22 29 27 -3 5 0 8 8 7 7 -2 12 5 12 15
-2 13 1 15 10 7 7 -5 16 -7 19 -4z m244 -12 c-2 -2 -12 -1 -22 3 -18 6 -18 7
1 13 17 7 33 -5 21 -16z m-2505 -26 c-8 -8 -9 -4 -5 13 4 13 8 18 11 10 2 -7
-1 -18 -6 -23z m2358 12 c0 -5 -2 -10 -4 -10 -3 0 -8 5 -11 10 -3 6 -1 10 4
10 6 0 11 -4 11 -10z m-2350 -35 c-7 -9 -15 -13 -19 -10 -3 3 1 10 9 15 21 14
24 12 10 -5z m183 -9 c-10 -13 -19 -23 -21 -21 -5 5 22 45 31 45 4 0 0 -11
-10 -24z m1555 -71 c-3 -3 -18 -8 -34 -10 l-29 -4 30 14 c28 12 46 12 33 0z
m-112 -32 c-3 -3 -1 -13 4 -23 6 -12 5 -17 -5 -17 -7 0 -11 6 -8 13 2 6 -1 15
-8 20 -8 4 -10 3 -5 -4 4 -7 1 -12 -8 -12 -21 0 -20 17 1 29 17 9 40 4 29 -6z
m520 -32 c0 -14 -4 -17 -16 -12 -8 5 -22 11 -30 15 -8 3 -5 4 7 2 13 -2 26 0
29 5 8 13 10 11 10 -10z m144 7 c0 9 12 12 42 9 46 -4 57 -17 33 -37 -17 -14
-20 -30 -4 -30 5 0 8 4 5 9 -3 5 12 11 35 13 22 2 42 1 45 -3 6 -10 -22 -19
-46 -14 -11 2 -20 0 -20 -6 0 -5 -9 -9 -21 -9 -11 0 -17 -4 -14 -10 3 -6 -1
-7 -9 -4 -9 3 -13 10 -10 15 3 5 3 9 0 9 -2 0 -11 3 -20 6 -11 4 -14 1 -11
-14 3 -16 -1 -19 -17 -14 -15 4 -17 7 -6 13 9 6 9 9 1 9 -6 0 -18 -7 -27 -15
-8 -8 -21 -15 -30 -15 -8 0 -18 -4 -21 -10 -4 -6 1 -7 12 -3 17 6 17 6 1 -10
-21 -22 -25 -21 -31 3 -3 11 -2 18 1 16 4 -2 13 2 20 10 11 12 3 13 -50 8 -35
-3 -75 -13 -90 -20 -15 -8 -30 -14 -33 -14 -16 1 -63 -14 -84 -28 -14 -8 -34
-15 -45 -16 -12 -1 -21 -8 -21 -16 0 -9 -8 -14 -20 -12 -10 2 -24 -3 -30 -11
-5 -8 -26 -18 -45 -22 -31 -7 -33 -6 -21 8 11 14 9 15 -21 6 -18 -6 -43 -13
-55 -16 -13 -3 -23 -13 -23 -22 0 -14 2 -14 11 -1 9 13 10 13 6 0 -3 -12 -17
-14 -62 -12 -33 2 -55 -1 -51 -6 4 -7 -58 -9 -96 -3 -15 2 -8 51 7 51 8 0 15
6 15 13 0 8 3 8 8 1 10 -14 95 3 86 18 -5 7 -2 8 5 3 19 -11 161 36 161 54 0
11 -3 11 -18 -2 -23 -21 -62 -22 -62 -2 0 15 58 51 67 41 3 -3 15 0 27 6 24
13 88 19 80 7 -2 -4 0 -11 6 -14 6 -4 17 9 25 28 14 34 24 38 83 37 9 0 39 0
67 0 43 -1 64 -10 65 -30 0 -3 -16 -7 -37 -8 -20 -2 -40 -5 -45 -8 -4 -3 -12
5 -16 16 -8 21 -10 21 -25 6 -10 -11 -18 -13 -22 -5 -5 8 -10 8 -19 -1 -8 -8
-7 -13 4 -20 11 -7 8 -10 -12 -15 -15 -4 -31 -4 -36 -1 -6 3 -12 0 -15 -8 -6
-14 -77 -28 -77 -14 0 4 -7 5 -15 2 -23 -9 -18 -24 10 -24 26 0 129 25 145 35
6 4 28 8 49 10 71 6 135 16 183 27 38 9 45 14 36 25 -8 10 -6 13 11 13 12 0
19 -4 16 -10 -6 -10 51 -12 100 -3 26 5 28 7 10 13 -11 5 -30 6 -42 3 -18 -4
-23 -1 -23 13 0 16 2 17 10 4 7 -11 10 -11 10 -2z m450 8 c0 -2 -7 -7 -16 -10
-8 -3 -12 -2 -9 4 6 10 25 14 25 6z m-255 -16 c-3 -5 -21 -9 -38 -9 l-32 1 30
8 c43 11 47 11 40 0z m-960 -10 c-3 -5 -10 -10 -16 -10 -5 0 -9 5 -9 10 0 6 7
10 16 10 8 0 12 -4 9 -10z m882 -6 c-3 -3 -12 -4 -19 -1 -8 3 -5 6 6 6 11 1
17 -2 13 -5z m-827 -44 c0 -6 -12 -15 -26 -20 -32 -12 -34 -12 -34 0 0 6 7 10
15 10 8 0 15 5 15 10 0 6 7 10 15 10 8 0 15 -5 15 -10z m-70 -20 c0 -5 -9 -14
-20 -20 -16 -8 -20 -8 -18 2 5 23 38 39 38 18z m55 -20 c-3 -5 0 -10 7 -11 7
-1 2 -4 -12 -8 -30 -9 -52 5 -30 19 20 13 43 13 35 0z m93 -36 c-10 -9 -41 24
-33 35 5 9 11 7 22 -9 8 -12 13 -23 11 -26z m-158 16 c0 -5 -5 -10 -11 -10 -5
0 -7 5 -4 10 3 6 8 10 11 10 2 0 4 -4 4 -10z m59 -27 c-10 -11 -10 -14 -1 -9
6 4 12 2 12 -3 0 -6 -16 -11 -35 -11 -42 0 -44 5 -7 24 36 20 47 20 31 -1z
m61 13 c0 -2 -9 -6 -20 -9 -11 -3 -18 -1 -14 4 5 9 34 13 34 5z m-185 -95 c-8
-14 -35 -14 -35 0 0 6 7 9 15 5 8 -3 15 0 15 6 0 6 3 9 6 5 3 -3 3 -10 -1 -16z
m-19 -47 c8 3 14 3 14 1 0 -10 -41 -45 -52 -45 -9 0 -9 3 1 9 8 5 11 16 7 26
-3 9 -3 22 1 28 5 8 9 6 11 -6 2 -11 9 -16 18 -13z m-2961 -214 c3 -5 1 -10
-4 -10 -6 0 -11 5 -11 10 0 6 2 10 4 10 3 0 8 -4 11 -10z m95 -41 c25 -5 83
-16 130 -23 149 -25 183 -34 265 -66 44 -18 120 -47 169 -65 49 -19 99 -44
110 -55 l21 -22 -47 6 c-26 4 -49 3 -52 -2 -3 -6 2 -9 12 -8 29 2 19 -27 -17
-47 l-33 -20 13 21 c19 30 0 47 -51 47 -22 0 -40 2 -40 6 0 4 17 7 38 7 74 1
78 1 62 12 -8 5 -43 10 -78 10 -92 0 -154 -36 -193 -112 -11 -22 -27 -38 -37
-38 -9 0 -51 -2 -92 -4 -41 -2 -87 0 -102 5 -15 4 -54 9 -85 10 -101 4 -93
-11 -93 180 l0 169 28 0 c15 -1 47 -5 72 -11z m920 -605 c199 -14 204 -21 15
-21 -195 0 -261 -4 -400 -28 -80 -13 -100 -13 -142 0 -23 7 -32 43 -15 60 7 7
383 0 542 -11z m425 -144 c3 -6 -1 -7 -9 -4 -18 7 -21 14 -7 14 6 0 13 -4 16
-10z m-295 -11 c140 0 147 -1 145 -20 -2 -31 -15 -37 -110 -49 -49 -7 -117
-19 -150 -27 -33 -9 -73 -15 -90 -14 -40 2 -106 -9 -101 -18 2 -3 -18 -29 -45
-56 -34 -34 -47 -55 -43 -67 4 -14 0 -18 -16 -18 -12 0 -33 -9 -47 -20 -16
-12 -41 -20 -66 -20 -36 0 -38 -1 -26 -17 13 -17 12 -17 -4 -3 -11 8 -29 16
-40 17 -12 2 -24 8 -25 13 -2 6 -8 8 -13 4 -13 -7 -17 8 -38 123 l-18 101 46
5 c25 3 84 13 131 22 47 8 115 18 153 22 37 3 67 9 67 13 0 3 24 7 52 9 29 1
55 4 57 7 3 3 12 2 20 -1 8 -3 81 -6 161 -6z m118 -95 c22 -15 30 -44 12 -44
-5 0 -10 -4 -10 -10 0 -12 -47 -59 -54 -54 -3 2 -4 1 -1 -2 2 -4 -4 -18 -15
-32 -11 -13 -17 -28 -14 -33 3 -5 -2 -9 -11 -9 -11 0 -15 -5 -12 -14 3 -7 0
-13 -6 -13 -44 1 -56 -4 -51 -20 2 -10 -1 -8 -7 5 -11 19 -8 27 19 62 18 21
32 42 32 47 0 4 16 28 35 52 33 41 39 54 36 74 -2 12 23 8 47 -9z m512 -77 c0
-4 -9 -2 -20 5 -13 9 -16 14 -7 20 11 6 27 -8 27 -25z m-927 -64 c-7 -2 -21
-2 -30 0 -10 3 -4 5 12 5 17 0 24 -2 18 -5z m-61 -80 c-6 -3 -10 -8 -8 -11 2
-4 -8 -8 -22 -8 -15 -1 -21 1 -14 3 6 3 10 8 8 11 -2 4 8 8 22 8 15 1 21 -1
14 -3z m-887 -1036 c-3 -7 -25 -24 -49 -39 -47 -28 -120 -53 -111 -37 4 5 13
9 21 9 21 0 85 35 109 58 23 24 37 28 30 9z m-178 -83 c-4 -4 -28 -8 -54 -10
-44 -2 -45 -2 -13 5 46 11 75 13 67 5z m-430 -10 c-11 -11 -1486 -14 -1492 -3
-4 5 281 9 746 9 414 0 749 -3 746 -6z m61 -1 c-10 -2 -26 -2 -35 0 -10 3 -2
5 17 5 19 0 27 -2 18 -5z m110 0 c-15 -2 -42 -2 -60 0 -18 2 -6 4 27 4 33 0
48 -2 33 -4z m59 1 c-3 -3 -12 -4 -19 -1 -8 3 -5 6 6 6 11 1 17 -2 13 -5z"/>
<path d="M5933 5251 c-45 -29 -65 -63 -65 -116 0 -119 142 -173 226 -86 51 54
42 157 -18 196 -41 27 -105 30 -143 6z"/>
<path d="M4752 5110 c0 -19 2 -27 5 -17 2 9 2 25 0 35 -3 9 -5 1 -5 -18z"/>
<path d="M4752 4900 c0 -14 2 -19 5 -12 2 6 2 18 0 25 -3 6 -5 1 -5 -13z"/>
<path d="M4752 4845 c0 -16 2 -22 5 -12 2 9 2 23 0 30 -3 6 -5 -1 -5 -18z"/>
<path d="M4753 4755 c0 -27 2 -38 4 -22 2 15 2 37 0 50 -2 12 -4 0 -4 -28z"/>
<path d="M6085 783 c2 -81 4 -97 18 -99 13 -2 16 8 16 53 -1 30 1 56 3 58 2 3
21 -11 41 -30 20 -19 34 -35 30 -35 -3 0 2 -9 12 -20 10 -11 26 -20 35 -20 14
0 16 13 15 92 0 80 -3 93 -18 96 -15 3 -17 -5 -17 -60 l-1 -63 -31 35 c-18 19
-36 34 -41 32 -5 -1 -6 2 -3 6 7 12 -28 52 -46 52 -11 0 -13 -19 -13 -97z"/>
<path d="M6298 868 c-3 -11 -3 -154 1 -180 1 -5 8 -8 16 -8 15 0 17 6 18 48 0
12 5 22 11 23 6 0 25 2 41 2 23 2 30 7 30 22 0 17 -6 19 -41 17 -38 -3 -41 -1
-40 20 1 20 7 24 51 28 36 4 50 9 50 20 0 20 -130 28 -137 8z"/>
<path d="M6460 860 c0 -16 7 -20 30 -20 l30 0 0 -73 c0 -78 4 -89 26 -80 10 4
14 25 14 79 l0 74 29 0 c27 0 47 20 34 34 -4 3 -42 6 -85 6 -71 0 -78 -2 -78
-20z"/>
<path d="M5785 811 c-3 -5 -2 -12 3 -15 5 -3 9 1 9 9 0 17 -3 19 -12 6z"/>
<path d="M5856 811 c-4 -6 -2 -11 5 -11 8 0 8 -4 -1 -15 -10 -12 -10 -15 1
-15 11 0 11 -2 -1 -10 -11 -7 -11 -10 -2 -10 7 0 11 -4 7 -9 -3 -5 -1 -12 4
-15 4 -3 8 4 7 17 -1 16 8 26 31 37 32 15 48 45 18 34 -8 -4 -15 -10 -15 -15
0 -10 -32 1 -41 14 -4 5 -9 5 -13 -2z"/>
<path d="M5735 800 c3 -5 8 -10 11 -10 2 0 4 5 4 10 0 6 -5 10 -11 10 -5 0 -7
-4 -4 -10z"/>
<path d="M5970 775 c0 -8 16 -13 40 -13 25 -1 40 4 40 11 0 8 -15 13 -40 13
-25 0 -40 -4 -40 -11z"/>
<path d="M5781 724 c0 -11 3 -14 6 -6 3 7 2 16 -1 19 -3 4 -6 -2 -5 -13z"/>
<path d="M5866 693 c-6 -14 -5 -15 5 -6 7 7 10 15 7 18 -3 3 -9 -2 -12 -12z"/>
<path d="M11225 3370 c-3 -5 -1 -10 4 -10 6 0 11 5 11 10 0 6 -2 10 -4 10 -3
0 -8 -4 -11 -10z"/>
<path d="M7619 2443 c-13 -16 -12 -17 4 -4 16 13 21 21 13 21 -2 0 -10 -8 -17
-17z"/>
<path d="M8223 1813 c-7 -2 -13 -12 -14 -21 0 -11 -2 -12 -6 -4 -5 14 -39 16
-47 3 -3 -5 6 -16 20 -26 20 -13 32 -14 53 -7 17 6 34 6 42 1 22 -14 29 -11
29 16 0 34 -40 54 -77 38z"/>
<path d="M9980 3959 c0 -5 5 -7 10 -4 6 3 10 8 10 11 0 2 -4 4 -10 4 -5 0 -10
-5 -10 -11z"/>
<path d="M10063 3956 c3 -8 2 -17 -4 -20 -5 -2 -4 -3 2 -2 15 3 21 36 7 36 -6
0 -8 -6 -5 -14z"/>
<path d="M9877 3948 c-2 -7 2 -21 11 -30 11 -13 12 -21 4 -31 -9 -10 -8 -14 3
-14 7 0 14 3 13 6 -2 20 3 31 12 26 6 -3 10 1 10 9 0 9 -6 16 -12 16 -9 0 -8
3 2 9 8 6 18 7 24 4 5 -3 6 -1 2 5 -11 19 -47 -4 -39 -25 5 -11 3 -14 -6 -9
-7 5 -11 17 -8 27 6 21 -9 27 -16 7z"/>
<path d="M10005 3930 c3 -5 8 -10 11 -10 2 0 4 5 4 10 0 6 -5 10 -11 10 -5 0
-7 -4 -4 -10z"/>
<path d="M9941 3914 c0 -11 3 -14 6 -6 3 7 2 16 -1 19 -3 4 -6 -2 -5 -13z"/>
<path d="M474 3801 c-52 -13 -98 -47 -124 -93 -24 -41 -25 -53 -28 -231 l-4
-188 74 7 c40 4 85 7 101 8 15 0 28 6 28 11 1 6 2 17 3 25 1 16 33 16 50 0 13
-13 -4 -31 -24 -25 -14 5 -18 1 -17 -14 1 -14 5 -17 11 -11 12 12 29 14 23 3
-3 -5 10 -8 28 -8 25 0 31 3 23 12 -6 7 -14 10 -19 7 -5 -3 -9 7 -9 23 l0 28
20 -25 c13 -16 18 -18 14 -7 -7 19 15 21 29 2 4 -6 10 -1 13 12 4 13 10 20 15
17 5 -3 21 -7 34 -10 18 -3 25 0 25 11 0 8 -8 15 -18 15 -28 0 -34 11 -14 27
15 13 15 13 -5 3 -12 -5 -24 -14 -28 -19 -3 -6 -15 -7 -28 -4 -12 2 -35 6 -52
8 -45 4 -47 4 -40 15 4 7 -2 9 -19 4 -27 -7 -32 1 -16 26 8 13 10 12 10 -4 0
-15 3 -16 15 -6 8 7 15 19 15 27 0 20 27 46 43 40 6 -2 17 3 24 12 11 14 13
14 26 -4 9 -11 14 -22 12 -26 -2 -3 3 -6 11 -6 8 0 13 6 10 13 -2 6 5 14 16
17 11 3 17 10 14 16 -4 5 2 15 11 21 17 11 17 11 -1 6 -15 -5 -17 -2 -13 14 3
11 1 18 -4 14 -17 -10 -9 7 16 34 14 15 25 22 25 16 0 -5 -5 -15 -12 -22 -9
-9 -9 -12 0 -12 7 0 12 5 12 11 0 8 4 8 14 0 11 -9 16 -9 22 0 5 8 3 9 -6 4
-9 -6 -11 -4 -5 5 6 10 13 7 29 -13 25 -31 36 -34 36 -9 0 14 2 15 10 2 9 -13
10 -13 11 0 2 17 2 17 -6 60 -3 19 -2 29 4 26 5 -4 12 -2 16 4 3 5 11 10 16
10 6 0 8 -4 5 -9 -4 -5 2 -7 13 -4 13 3 17 11 14 24 -3 10 -1 19 5 19 5 0 13
-12 18 -27 5 -21 8 -24 11 -10 3 9 10 17 16 18 7 0 20 2 30 4 15 3 18 -1 14
-16 -4 -15 -2 -18 7 -10 7 6 17 7 21 3 5 -4 5 -2 2 4 -4 7 5 11 23 12 17 0 30
-4 30 -9 0 -6 -4 -8 -8 -5 -5 3 -9 -2 -9 -10 0 -8 6 -13 14 -10 8 3 13 -2 13
-12 1 -16 1 -15 11 1 8 13 7 22 -1 33 -9 10 -9 14 -1 14 15 0 14 27 -1 32 -8
3 -8 7 -2 11 6 3 19 -11 30 -31 24 -46 44 -53 39 -12 -3 27 -2 28 16 17 11 -7
15 -13 9 -15 -5 -2 -10 -11 -10 -19 0 -14 2 -14 19 1 14 13 21 14 27 5 4 -8 3
-10 -4 -5 -7 4 -12 3 -12 -2 0 -5 9 -12 20 -15 18 -5 27 -30 21 -61 -1 -5 4
-5 11 1 7 6 21 9 31 8 9 -2 15 1 12 5 -3 5 -15 7 -28 5 -20 -4 -20 -3 -5 9 10
7 15 16 12 19 -3 3 -1 14 6 24 11 17 11 17 6 0 -7 -22 29 -74 39 -57 3 5 12
10 18 9 9 0 9 -2 0 -5 -18 -8 -4 -34 14 -27 10 4 14 2 10 -4 -4 -6 3 -23 15
-39 l22 -27 12 27 c9 22 12 25 17 12 4 -9 3 -16 -2 -16 -19 0 -19 -40 -1 -50
24 -13 30 -13 30 1 0 6 10 20 23 31 17 15 18 18 4 14 -13 -4 -17 -1 -15 11 2
9 -4 18 -12 20 -12 4 -12 3 -1 -5 8 -6 9 -12 3 -16 -5 -3 -12 0 -14 7 -7 16 2
38 12 32 4 -3 6 4 3 15 -3 11 0 20 6 20 6 0 11 -4 11 -9 0 -15 69 22 73 38 1
9 6 4 9 -12 3 -15 1 -30 -5 -34 -6 -3 -7 -1 -3 5 9 16 -7 15 -22 0 -14 -14
-16 -42 -2 -33 6 3 7 -1 4 -10 -4 -8 0 -22 7 -31 10 -12 10 -15 -1 -12 -8 2
-14 -3 -15 -11 0 -8 -6 -16 -14 -19 -9 -3 -11 0 -5 9 6 11 5 12 -8 2 -8 -7
-19 -9 -24 -5 -4 4 -3 0 3 -9 11 -13 7 -15 -25 -15 -33 1 -37 -2 -39 -24 -2
-43 -3 -45 -14 -30 -8 12 -10 9 -6 -12 2 -16 -2 -36 -9 -45 -8 -13 -9 -22 -2
-30 7 -9 6 -14 -4 -18 -9 -4 -13 -16 -10 -34 2 -16 -5 -46 -17 -70 -23 -44
-19 -50 16 -26 19 13 22 13 27 0 3 -9 -1 -15 -10 -15 -20 0 -47 -27 -39 -40
11 -18 -25 -23 -43 -7 -12 11 -22 13 -32 7 -13 -9 -13 -10 0 -10 13 0 13 -2 0
-11 -12 -9 -12 -10 3 -5 11 3 24 3 30 -1 12 -8 33 -13 55 -15 14 -1 16 -24 3
-32 -5 -3 -9 -25 -9 -49 -1 -47 20 -80 58 -92 11 -3 20 -11 20 -16 0 -21 -21
-49 -36 -49 -21 0 -94 69 -88 84 3 8 -10 10 -41 8 -25 -2 -45 -8 -45 -13 0 -5
-7 -9 -16 -9 -14 0 -14 3 -4 15 13 15 5 20 -28 16 -6 -1 -12 5 -12 14 0 8 -5
15 -10 15 -10 0 -8 -30 5 -63 4 -9 2 -24 -5 -32 -7 -8 -9 -22 -6 -31 12 -31
-7 -36 -20 -5 -15 35 -76 79 -83 58 -2 -6 -11 -17 -19 -23 -13 -9 -11 -12 11
-18 15 -3 27 -11 27 -17 0 -8 -5 -7 -15 1 -18 15 -47 6 -39 -13 3 -8 -2 -22
-12 -31 -12 -13 -14 -20 -5 -29 8 -8 11 -8 11 1 0 18 57 15 64 -3 3 -10 19
-15 48 -15 30 0 39 -3 28 -9 -8 -6 -18 -7 -22 -5 -4 3 -8 0 -8 -6 0 -6 -5 -8
-12 -4 -6 4 -8 3 -4 -4 3 -5 0 -13 -6 -15 -9 -4 -10 -6 -1 -6 6 -1 15 4 18 9
3 6 11 10 16 10 16 0 -19 -43 -38 -48 -34 -7 -98 -1 -109 11 -13 12 -26 7 -21
-7 3 -8 0 -17 -8 -20 -9 -3 -12 0 -9 8 3 8 -4 16 -15 19 -37 9 -22 25 24 25
24 0 49 3 55 7 15 9 12 32 -6 39 -20 8 -36 -2 -28 -17 3 -7 -1 -4 -9 6 -10 12
-17 14 -22 7 -3 -5 -11 -8 -16 -5 -5 4 -9 1 -9 -4 0 -6 -7 -11 -15 -11 -8 0
-22 -11 -31 -25 -18 -27 -86 -51 -113 -39 -9 4 -18 7 -21 6 -3 0 -6 17 -6 39
-1 21 2 39 7 39 5 0 9 -4 9 -10 0 -5 7 -10 16 -10 10 0 14 6 11 14 -3 8 2 16
15 19 15 4 18 11 13 26 -5 15 -1 23 12 28 19 7 53 41 53 53 0 4 9 10 21 13 12
3 18 10 14 16 -3 6 2 11 12 11 10 0 31 16 46 36 23 28 32 33 43 24 10 -9 19
-7 40 9 25 19 21 26 -13 22 -6 -1 -14 3 -18 9 -9 15 -25 12 -25 -5 0 -8 -7
-15 -16 -15 -8 0 -12 5 -9 10 3 6 -1 10 -9 10 -9 0 -13 -6 -10 -14 3 -8 -3
-20 -14 -27 -11 -7 -18 -19 -15 -26 7 -18 -2 -16 -21 3 -15 14 -16 14 -16 -5
0 -12 -5 -21 -11 -21 -5 0 -8 4 -5 9 3 5 -1 14 -9 21 -12 10 -18 10 -30 0 -21
-17 -19 -25 7 -37 23 -10 23 -10 -7 -25 -34 -17 -65 -13 -65 7 0 9 6 12 15 8
12 -4 10 4 -7 33 -19 32 -20 37 -5 31 11 -4 17 -1 17 8 0 8 6 15 14 15 21 0
30 20 16 33 -10 9 -14 9 -17 0 -3 -7 -9 -13 -14 -13 -6 0 -7 4 -4 10 3 6 -1 7
-9 4 -8 -3 -18 -14 -21 -25 -4 -11 -11 -17 -16 -14 -5 4 -9 -1 -9 -10 0 -8 -7
-18 -16 -22 -8 -3 -13 -12 -10 -19 3 -8 0 -14 -7 -14 -7 -1 -3 -9 9 -18 16
-14 19 -23 13 -40 -11 -28 -16 -28 -15 0 1 20 -3 23 -34 20 -26 -2 -31 0 -20
7 13 9 13 11 -2 11 -10 0 -18 -7 -18 -15 0 -8 -5 -15 -10 -15 -6 0 -15 -11
-20 -25 -11 -28 -49 -48 -64 -34 -13 12 -19 85 -8 106 5 10 7 24 5 31 -7 18
-33 -5 -33 -28 0 -10 -7 -21 -16 -24 -25 -10 -32 4 -10 19 32 24 8 38 -29 17
-18 -11 -48 -23 -66 -27 -75 -15 -68 11 -68 -266 -1 -140 4 -272 10 -300 12
-55 69 -127 90 -113 7 4 9 3 6 -3 -9 -15 68 -44 99 -39 16 3 27 0 31 -10 4
-12 8 -12 21 -2 12 10 14 10 8 1 -4 -7 -3 -13 3 -13 5 0 12 6 14 13 4 9 6 9 6
0 1 -18 31 -16 31 1 0 17 32 15 38 -2 2 -7 13 -12 25 -12 22 1 22 1 2 16 -19
14 -18 15 13 12 33 -2 42 -12 20 -21 -7 -3 1 -6 17 -6 23 -1 26 2 15 9 -12 8
-8 10 15 11 41 2 69 -2 75 -10 8 -11 32 -12 25 -1 -3 5 0 10 7 10 10 0 10 2 1
8 -7 4 -10 17 -6 30 6 23 6 23 20 2 8 -11 11 -25 7 -32 -5 -8 -2 -9 9 -5 9 3
19 1 23 -5 4 -6 3 -8 -2 -5 -6 3 -16 2 -24 -4 -11 -6 -8 -9 13 -9 15 0 27 4
27 9 0 5 7 11 14 14 10 4 13 1 9 -9 -3 -7 0 -14 6 -14 6 0 11 6 11 14 0 17 32
15 38 -2 5 -16 35 -15 50 0 9 9 15 9 24 0 17 -17 28 -15 22 6 -5 16 -5 16 6 0
12 -19 60 -25 60 -8 0 6 8 10 18 10 13 0 14 -2 3 -9 -9 -6 -10 -11 -2 -15 6
-4 11 -3 11 2 0 5 16 8 36 6 27 -2 34 1 30 12 -3 8 -1 14 4 14 6 0 10 -8 11
-17 0 -11 3 -13 6 -5 2 6 9 12 14 12 6 0 7 -5 4 -11 -5 -7 3 -9 21 -7 16 2 28
8 27 15 -2 7 4 10 12 7 8 -4 12 -10 9 -15 -3 -5 4 -9 15 -9 11 0 23 4 26 10 3
6 -1 7 -9 4 -9 -3 -16 -2 -16 3 0 4 21 8 48 7 28 -2 46 -7 44 -13 -2 -13 -6
-12 73 -15 46 -3 63 1 72 13 11 14 12 14 13 -2 0 -10 5 -15 10 -12 6 4 8 11 5
16 -4 5 1 9 10 9 9 0 13 -4 10 -10 -3 -5 3 -10 14 -10 12 0 21 6 21 13 0 10
14 13 50 11 l50 -2 0 329 c0 311 -4 353 -27 316 -11 -17 -62 -39 -74 -31 -5 3
-8 2 -7 -3 5 -14 -71 -84 -84 -77 -6 4 -8 3 -5 -3 10 -16 -16 -33 -41 -26 -30
8 -28 21 3 15 14 -2 25 0 25 7 0 5 -7 8 -16 4 -13 -5 -15 -2 -9 18 6 19 5 21
-5 12 -8 -7 -20 -9 -35 -3 -13 5 -31 7 -41 4 -20 -5 -77 40 -82 65 -3 16 17
43 28 36 4 -2 21 0 38 4 25 8 30 6 25 -5 -3 -8 0 -15 6 -15 21 -3 26 -4 41
-14 13 -8 13 -7 1 8 -7 9 -16 15 -20 13 -3 -2 -12 7 -18 20 -10 21 -9 28 8 45
17 17 18 22 5 34 -21 21 -47 8 -40 -20 6 -24 -14 -39 -35 -25 -10 5 -9 9 3 13
18 7 21 30 6 57 -12 22 -50 16 -50 -9 0 -14 2 -14 10 -1 5 8 12 11 17 7 6 -7
-14 -27 -27 -27 -21 1 -42 33 -42 65 0 39 27 89 43 80 5 -4 15 0 23 8 18 18
73 10 89 -13 6 -9 29 -20 50 -24 48 -9 49 -35 5 -75 -38 -34 -34 -51 5 -21 14
11 30 20 36 20 15 0 14 -23 -1 -38 -6 -6 -8 -15 -4 -19 4 -4 11 -2 15 6 6 10
10 9 14 -4 4 -9 3 -13 -3 -10 -6 3 -10 1 -10 -4 0 -14 2 -14 50 5 44 18 60 13
40 -11 -11 -14 -7 -19 13 -16 4 0 7 -3 7 -9 0 -5 16 -9 35 -8 l35 1 0 98 c0
68 -4 99 -12 102 -10 4 -10 8 0 15 17 11 12 57 -5 57 -7 0 -13 3 -13 8 0 4 0
12 0 18 0 8 5 8 15 -1 13 -11 15 23 15 297 l0 310 -27 14 c-23 12 -139 14
-668 16 -352 1 -654 -2 -671 -6z m328 -70 c18 1 42 1 53 0 19 -2 19 -3 -4 -21
-13 -11 -30 -20 -38 -20 -8 0 -13 -6 -10 -12 2 -7 11 -11 18 -10 8 2 10 0 6
-5 -5 -4 -12 -8 -17 -8 -4 0 -18 -11 -30 -25 -12 -14 -19 -19 -15 -12 3 6 0
12 -7 13 -11 0 -11 2 0 6 10 4 9 10 -5 26 -10 11 -13 17 -7 14 7 -4 16 -1 22
6 8 9 3 13 -20 14 -17 0 -27 -2 -22 -6 5 -3 10 -14 10 -23 1 -14 -2 -15 -17
-8 -10 6 -21 15 -25 22 -4 7 -3 8 4 4 7 -4 13 -2 13 3 5 43 20 61 39 51 10 -5
33 -9 52 -9z m278 -25 c0 -3 -4 -8 -10 -11 -5 -3 -10 -1 -10 4 0 6 5 11 10 11
6 0 10 -2 10 -4z m270 -40 c0 -17 -14 -29 -23 -20 -8 8 3 34 14 34 5 0 9 -6 9
-14z m-620 -39 c0 -4 -9 -3 -20 3 -11 6 -20 15 -20 21 0 6 -5 7 -12 3 -7 -4
-8 -3 -4 4 5 9 14 7 31 -5 14 -10 25 -22 25 -26z m660 33 c0 -5 -8 -10 -17
-10 -15 0 -16 2 -3 10 19 12 20 12 20 0z m88 -25 c-3 -3 -9 2 -12 12 -6 14 -5
15 5 6 7 -7 10 -15 7 -18z m-655 -26 c-11 -5 -13 -8 -4 -8 8 -1 12 -4 8 -7
-11 -12 -25 6 -20 26 4 17 8 18 20 8 13 -10 13 -13 -4 -19z m-123 -13 c0 -3
-4 -8 -10 -11 -5 -3 -10 -1 -10 4 0 6 5 11 10 11 6 0 10 -2 10 -4z m-65 -16
c3 -6 -1 -7 -9 -4 -18 7 -21 14 -7 14 6 0 13 -4 16 -10z m-255 -80 c-11 -7
-11 -10 -2 -10 7 0 10 -4 7 -10 -15 -24 -26 -5 -16 28 1 1 7 2 14 2 8 0 7 -4
-3 -10z m1120 -55 c0 -8 -4 -15 -10 -15 -5 0 -7 7 -4 15 4 8 8 15 10 15 2 0 4
-7 4 -15z m-1001 -27 c-11 -20 -40 -21 -46 -1 -4 10 14 18 44 19 9 1 9 -5 2
-18z m987 -18 c0 -11 -3 -20 -7 -20 -10 0 -19 27 -12 34 12 11 19 6 19 -14z
m-32 -24 c-3 -8 -1 -17 5 -21 6 -3 11 -1 11 6 0 10 3 10 12 1 9 -9 14 -7 24 6
12 15 13 15 8 -4 -6 -22 -49 -31 -60 -13 -3 5 -10 7 -15 4 -5 -4 -9 -2 -9 4 0
5 5 13 10 16 6 4 7 11 4 17 -4 7 -2 8 4 4 6 -4 9 -13 6 -20z m-759 -6 c3 -5 1
-10 -4 -10 -6 0 -11 5 -11 10 0 6 2 10 4 10 3 0 8 -4 11 -10z m905 0 c0 -5 -5
-10 -11 -10 -5 0 -7 5 -4 10 3 6 8 10 11 10 2 0 4 -4 4 -10z m-53 -15 c0 -8
-4 -12 -9 -9 -4 3 -8 0 -8 -7 0 -7 -3 -9 -6 -6 -4 4 -1 13 6 22 15 19 17 19
17 0z m38 -135 c3 -5 -1 -10 -9 -10 -9 0 -16 5 -16 10 0 6 4 10 9 10 6 0 13
-4 16 -10z m155 -103 c0 -11 -40 -34 -45 -27 -4 6 4 14 17 19 28 12 28 12 28
8z m25 -27 c3 -5 -1 -10 -10 -10 -9 0 -13 5 -10 10 3 6 8 10 10 10 2 0 7 -4
10 -10z m20 -78 c7 -18 -25 -28 -36 -11 -13 21 -11 25 11 25 11 0 22 -6 25
-14z m-1010 -82 c3 -5 1 -10 -5 -10 -6 0 -8 -4 -5 -10 3 -5 1 -18 -4 -27 -6
-10 -11 -15 -11 -10 0 4 1 9 3 10 1 2 -4 11 -11 20 -8 9 -11 21 -7 27 8 13 32
13 40 0z m-322 -35 c-3 -9 -8 -14 -10 -11 -3 3 -2 9 2 15 9 16 15 13 8 -4z
m217 -19 c0 -2 -7 -7 -16 -10 -8 -3 -12 -2 -9 4 6 10 25 14 25 6z m480 -36 c0
-5 -7 -7 -15 -4 -8 4 -12 10 -9 15 6 11 24 2 24 -11z m-437 -52 c-15 -17 -53
-24 -65 -13 -3 3 4 16 15 29 17 19 24 21 43 12 21 -10 21 -12 7 -28z m-113 12
c0 -5 -5 -10 -11 -10 -5 0 -7 5 -4 10 3 6 8 10 11 10 2 0 4 -4 4 -10z m-48
-14 c-9 -6 -30 -12 -47 -14 -16 -2 -37 -8 -46 -12 -21 -12 -28 -4 -22 20 5 17
14 19 69 18 48 -2 59 -5 46 -12z m787 -13 c-8 -9 -9 -14 -4 -11 6 3 15 0 22
-7 10 -10 9 -14 -2 -18 -13 -6 -10 -47 4 -47 4 0 8 -6 8 -14 0 -22 -34 3 -51
39 -11 21 -12 33 -4 42 6 7 7 13 2 13 -11 0 18 20 30 20 5 0 2 -8 -5 -17z
m-705 -28 c4 -11 -2 -15 -21 -15 -26 0 -26 1 -7 15 10 8 20 15 20 15 1 0 4 -7
8 -15z m794 -5 c7 -11 21 -20 33 -20 11 0 18 -4 14 -10 -3 -5 -11 -7 -18 -5
-7 2 -25 6 -40 10 -22 4 -26 9 -18 19 6 7 8 16 4 19 -3 4 -2 7 3 7 5 0 15 -9
22 -20z m-944 -8 c-7 -4 -14 -16 -16 -27 -5 -19 -5 -19 -13 -1 -8 18 7 36 30
36 6 0 5 -4 -1 -8z m36 -2 c0 -5 -2 -10 -4 -10 -3 0 -8 5 -11 10 -3 6 -1 10 4
10 6 0 11 -4 11 -10z m204 -12 c12 -57 3 -62 -61 -43 -17 6 -26 -12 -11 -19 7
-4 2 -4 -10 -2 -13 3 -21 2 -18 -1 3 -4 1 -12 -6 -20 -9 -11 -8 -13 3 -11 8 2
14 -4 14 -12 0 -16 -25 -18 -62 -6 -15 5 -23 3 -23 -4 0 -6 5 -8 11 -4 7 4 10
1 7 -6 -2 -7 -12 -14 -21 -16 -9 -1 -15 1 -13 4 2 4 -3 23 -11 42 -9 19 -15
38 -15 43 1 4 -2 7 -8 7 -5 0 -10 7 -10 15 0 11 9 7 31 -12 29 -27 69 -48 69
-37 0 2 -11 9 -25 14 -14 5 -25 14 -25 20 0 7 6 8 19 1 10 -6 21 -7 25 -4 3 3
6 1 6 -5 0 -7 5 -12 11 -12 7 0 9 9 6 21 -9 34 2 50 29 43 14 -4 24 -2 24 4 0
10 19 18 47 21 7 0 15 -9 17 -21z m-314 -18 c-6 -11 -13 -20 -15 -20 -3 0 -5
9 -5 20 0 11 7 20 15 20 13 0 14 -4 5 -20z m-50 -6 c0 -8 -19 -13 -24 -6 -3 5
1 9 9 9 8 0 15 -2 15 -3z m550 -29 c10 -12 16 -13 26 -4 23 19 16 4 -13 -27
-14 -15 -31 -29 -37 -30 -6 -1 -15 -3 -21 -5 -16 -4 -65 19 -65 31 0 13 41 30
54 22 5 -3 6 0 2 6 -6 10 7 20 30 21 6 1 17 -6 24 -14z m380 -11 c0 -22 -16
-17 -17 6 -1 11 2 18 8 15 5 -4 9 -13 9 -21z m-818 -32 c-4 -11 -7 -12 -10 -3
-3 8 -8 7 -17 -6 -11 -14 -16 -15 -26 -6 -9 9 -9 16 -1 26 7 8 8 18 4 22 -4 5
-1 5 6 1 7 -4 12 -2 12 5 0 8 7 6 19 -5 12 -11 17 -24 13 -34z m711 9 c8 -6
20 -5 37 4 30 17 40 18 40 5 0 -5 -6 -9 -12 -7 -7 1 -12 -4 -10 -11 1 -8 -2
-11 -7 -8 -5 4 -12 2 -16 -3 -8 -13 -45 -9 -38 4 4 5 -2 2 -13 -7 -13 -11 -24
-14 -34 -8 -8 5 -18 6 -22 4 -4 -3 -8 -1 -8 4 0 13 -45 21 -61 12 -6 -4 -9
-12 -6 -17 8 -13 -8 -36 -27 -39 -22 -3 -20 13 4 39 11 12 19 26 17 32 -6 13
140 10 156 -4z m-323 -75 c0 -2 -7 -7 -16 -10 -8 -3 -12 -2 -9 4 6 10 25 14
25 6z m-196 -21 c-4 -8 -10 -12 -15 -9 -11 6 -2 24 11 24 5 0 7 -7 4 -15z
m-41 -10 c-3 -9 -2 -15 3 -14 20 3 34 -2 34 -12 0 -5 -4 -8 -8 -5 -5 3 -20 -1
-35 -9 -30 -15 -67 -16 -67 -1 0 5 -7 1 -15 -10 -14 -18 -14 -18 -8 4 4 15 13
22 29 22 12 0 26 5 29 10 4 6 11 8 16 5 5 -4 9 -1 9 5 0 7 -8 9 -21 5 -15 -5
-19 -4 -15 4 4 6 18 11 31 11 18 0 23 -4 18 -15z m898 -2 c13 -17 13 -17 -6
-3 -11 8 -22 16 -24 17 -2 2 0 3 6 3 6 0 17 -8 24 -17z m-963 -8 c2 -1 -15 -4
-36 -7 -27 -2 -38 0 -35 8 4 10 61 9 71 -1z m192 -6 c0 -13 4 -18 12 -13 7 4
8 3 4 -4 -8 -14 -35 -3 -56 22 -11 14 -9 16 14 16 20 0 26 -5 26 -21z m474 -4
c-4 -9 0 -15 7 -15 11 0 11 -2 0 -9 -12 -8 -12 -13 1 -33 20 -30 13 -55 -10
-36 -14 11 -15 10 -8 -7 4 -11 4 -16 -1 -12 -11 12 -10 87 2 87 6 0 3 5 -5 10
-13 9 -13 11 0 20 20 13 20 13 14 -5z m-814 -15 c0 -5 -5 -10 -11 -10 -5 0 -7
5 -4 10 3 6 8 10 11 10 2 0 4 -4 4 -10z m106 -2 c4 -4 1 -15 -6 -23 -7 -9 -9
-15 -4 -14 21 4 44 -2 44 -11 0 -11 -39 -13 -65 -4 -14 6 -14 8 2 27 10 11 13
17 7 14 -7 -4 -17 -1 -22 6 -9 10 -6 13 13 12 13 0 27 -3 31 -7z m-156 -18
c13 -8 13 -10 -2 -10 -9 0 -20 5 -23 10 -8 13 5 13 25 0z m776 -23 c4 -14 13
-18 30 -14 21 4 24 1 18 -16 -4 -11 -1 -23 7 -28 11 -6 11 -11 1 -21 -9 -9
-12 -9 -12 2 0 11 -3 11 -12 2 -7 -7 -16 -12 -20 -12 -11 0 -6 23 7 33 6 5 -9
7 -32 5 -23 -2 -39 0 -37 4 3 5 -8 8 -25 8 -16 0 -33 -5 -36 -10 -4 -6 -11 -7
-17 -4 -7 5 -8 2 -3 -6 6 -10 4 -12 -10 -6 -17 6 -18 5 -3 -11 26 -31 28 -41
12 -47 -12 -5 -14 -1 -8 17 6 20 5 20 -19 -5 -24 -26 -49 -34 -86 -28 -9 1
-12 -4 -7 -15 3 -9 2 -13 -4 -10 -15 9 -12 35 4 35 8 0 17 7 20 16 10 25 7 27
-11 13 -11 -10 -14 -10 -9 -1 4 6 2 12 -4 12 -6 0 -13 -7 -16 -15 -4 -8 -14
-15 -23 -15 -13 0 -13 2 -2 9 11 7 11 9 0 13 -7 2 -9 9 -5 16 5 8 16 10 28 6
17 -5 20 -3 15 10 -8 21 19 21 40 1 16 -17 34 -16 35 0 0 6 -15 14 -32 19 -24
7 -30 14 -27 28 3 10 0 18 -6 19 -8 0 -7 3 1 6 7 3 19 -3 27 -13 12 -17 16
-18 63 -2 28 9 53 13 56 10 10 -9 57 -11 51 -2 -5 9 10 17 32 17 7 0 15 -9 19
-20z m140 4 c7 6 18 8 24 4 13 -8 33 -56 26 -62 -9 -9 -46 18 -47 35 -1 11 -4
8 -9 -8 -7 -21 -8 -22 -9 -4 -1 11 -5 25 -11 32 -7 9 -7 9 2 2 7 -6 16 -6 24
1z m124 -13 c0 -4 -5 -8 -11 -8 -6 0 -9 -12 -7 -27 2 -22 8 -27 25 -25 17 2
20 -1 16 -18 -6 -22 -29 -27 -35 -8 -3 7 -13 5 -31 -7 -15 -9 -27 -13 -27 -7
0 6 9 16 20 22 24 13 27 58 5 66 -25 10 -17 20 15 20 17 0 30 -3 30 -8z m-599
-48 c-16 -4 -28 -17 -36 -40 -10 -31 -12 -32 -17 -12 -4 15 -2 20 5 16 9 -5 9
-4 0 6 -8 8 -16 9 -29 2 -12 -7 -27 -5 -51 7 -45 22 -41 34 8 26 28 -5 39 -4
35 3 -9 16 24 19 69 8 36 -9 37 -11 16 -16z m54 20 c3 -6 -1 -7 -9 -4 -18 7
-21 14 -7 14 6 0 13 -4 16 -10z m-277 -13 c7 0 11 -5 9 -11 -6 -18 -67 -4 -67
14 0 7 8 9 23 4 12 -4 28 -7 35 -7z m915 -7 c13 -15 14 -26 7 -44 -9 -23 -12
-24 -41 -14 -32 11 -32 11 -10 20 18 6 22 14 19 33 -6 30 2 32 25 5z m-990
-10 c-4 -16 -8 -18 -20 -9 -11 10 -11 14 -1 20 21 14 26 10 21 -11z m1187 9
c0 -6 9 -8 23 -4 22 7 22 7 2 -10 -11 -9 -15 -14 -8 -11 6 4 14 2 17 -3 3 -5
-1 -11 -9 -14 -8 -4 -16 2 -20 14 -5 16 -10 18 -21 8 -7 -6 -11 -15 -8 -20 3
-5 0 -9 -5 -9 -16 0 -13 16 4 30 8 7 12 16 9 21 -3 5 0 9 5 9 6 0 11 -5 11
-11z m-635 -9 c3 -5 1 -10 -4 -10 -6 0 -11 5 -11 10 0 6 2 10 4 10 3 0 8 -4
11 -10z m78 -17 c-5 -12 -7 -12 -14 -1 -13 20 -11 28 5 22 8 -3 12 -12 9 -21z
m-337 -10 c-10 -10 -19 5 -10 18 6 11 8 11 12 0 2 -7 1 -15 -2 -18z m312 -8
c-3 -3 -9 2 -12 12 -6 14 -5 15 5 6 7 -7 10 -15 7 -18z m-2 -33 c-5 -4 -46 35
-46 45 0 3 11 -4 25 -17 14 -13 23 -25 21 -28z m107 23 c4 -8 2 -17 -3 -20 -6
-4 -10 3 -10 14 0 25 6 27 13 6z m-79 -20 c-5 -11 -2 -13 10 -9 9 3 16 1 16
-5 0 -6 3 -10 8 -10 4 1 14 1 22 0 12 -1 11 -4 -2 -18 -16 -15 -19 -15 -43 10
-15 14 -24 31 -20 37 9 15 15 12 9 -5z m-290 -4 c-9 -9 -34 -9 -40 0 -3 5 6 8
20 7 14 -1 23 -4 20 -7z m231 -1 c3 -6 -1 -7 -9 -4 -18 7 -21 14 -7 14 6 0 13
-4 16 -10z m165 -10 c0 -5 -2 -10 -4 -10 -3 0 -8 5 -11 10 -3 6 -1 10 4 10 6
0 11 -4 11 -10z m-745 -58 c-6 -6 -35 18 -35 29 0 5 9 1 20 -8 11 -9 17 -19
15 -21z m763 3 c16 -34 15 -40 -3 -25 -8 6 -14 15 -13 18 2 21 -5 23 -27 8
-14 -9 -25 -12 -25 -7 0 11 29 30 46 31 6 0 16 -11 22 -25z m12 -55 c-19 -13
-30 -13 -30 0 0 6 10 10 23 10 18 0 19 -2 7 -10z"/>
<path d="M735 3720 c-3 -5 -1 -10 4 -10 6 0 11 5 11 10 0 6 -2 10 -4 10 -3 0
-8 -4 -11 -10z"/>
<path d="M820 3710 c-9 -6 -10 -10 -3 -10 6 0 15 5 18 10 8 12 4 12 -15 0z"/>
<path d="M770 3660 c0 -5 4 -10 9 -10 6 0 13 5 16 10 3 6 -1 10 -9 10 -9 0
-16 -4 -16 -10z"/>
<path d="M670 2790 c0 -5 5 -10 10 -10 6 0 10 5 10 10 0 6 -4 10 -10 10 -5 0
-10 -4 -10 -10z"/>
<path d="M10272 3801 l-24 -6 21 -24 c12 -14 24 -35 27 -48 4 -13 11 -23 18
-23 27 0 56 13 56 25 0 7 17 29 37 49 l37 36 -74 -1 c-41 -1 -85 -4 -98 -8z"/>
<path d="M10670 3800 c0 -7 16 -31 22 -33 2 -1 13 6 23 16 10 10 26 16 36 14
11 -3 19 -1 19 4 0 6 -22 9 -50 7 -27 -2 -50 -5 -50 -8z"/>
<path d="M11433 3797 c-3 -6 -1 -7 5 -3 7 4 12 1 12 -7 0 -8 7 -18 16 -21 23
-9 24 -8 21 16 -4 23 -42 33 -54 15z"/>
<path d="M10883 3788 c11 -5 29 -8 41 -6 22 4 46 -12 46 -31 0 -11 58 -61 71
-61 5 0 4 6 -3 14 -7 8 -16 12 -20 9 -5 -2 -8 6 -8 17 0 16 -4 20 -16 16 -8
-3 -13 -2 -10 3 10 16 -34 43 -76 46 -34 3 -39 1 -25 -7z"/>
<path d="M11250 3790 c0 -6 7 -10 15 -10 8 0 15 2 15 4 0 2 -7 6 -15 10 -8 3
-15 1 -15 -4z"/>
<path d="M11200 3780 c0 -5 5 -10 11 -10 5 0 7 5 4 10 -3 6 -8 10 -11 10 -2 0
-4 -4 -4 -10z"/>
<path d="M11234 3755 c0 -18 4 -31 9 -28 4 2 7 0 7 -6 0 -5 -5 -12 -10 -14 -6
-3 -5 -4 2 -3 19 4 22 53 5 70 -12 13 -14 10 -13 -19z"/>
<path d="M11571 3774 c0 -11 3 -14 6 -6 3 7 2 16 -1 19 -3 4 -6 -2 -5 -13z"/>
<path d="M10770 3775 c0 -7 30 -13 34 -7 3 4 -4 9 -15 9 -10 1 -19 0 -19 -2z"/>
<path d="M11601 3734 c6 -7 6 -14 1 -18 -6 -3 -12 1 -16 9 -3 8 -12 15 -20 15
-10 0 -13 -6 -10 -15 4 -8 10 -13 14 -10 5 3 12 -1 17 -8 7 -12 11 -11 27 4
12 11 14 19 7 19 -7 0 -10 4 -7 8 3 5 -1 9 -9 9 -11 0 -12 -4 -4 -13z"/>
<path d="M11662 3696 c1 -14 5 -23 9 -20 7 4 0 44 -7 44 -2 0 -3 -11 -2 -24z"/>
<path d="M11631 3697 c-8 -10 -7 -14 4 -14 8 0 15 6 15 14 0 7 -2 13 -4 13 -2
0 -9 -6 -15 -13z"/>
<path d="M1130 3680 c0 -5 5 -10 10 -10 6 0 10 5 10 10 0 6 -4 10 -10 10 -5 0
-10 -4 -10 -10z"/>
<path d="M11064 3644 c19 -17 26 -31 23 -44 -3 -11 0 -20 5 -20 16 0 -31 -34
-89 -65 -29 -15 -51 -31 -48 -36 3 -4 20 0 38 11 18 11 46 27 62 36 17 9 49
36 73 60 23 24 45 44 48 43 3 0 8 1 10 4 3 2 -12 4 -33 3 -21 -1 -51 6 -68 16
-43 26 -55 22 -21 -8z"/>
<path d="M870 3650 c0 -5 5 -10 11 -10 5 0 7 5 4 10 -3 6 -8 10 -11 10 -2 0
-4 -4 -4 -10z"/>
<path d="M1140 3652 c-5 -2 -10 -8 -10 -14 0 -7 5 -6 14 1 11 10 16 9 23 -3 7
-14 10 -13 19 2 9 14 7 17 -12 17 -13 0 -28 -1 -34 -3z"/>
<path d="M1210 3651 c0 -17 30 -25 43 -12 8 8 8 11 0 11 -6 0 -18 3 -27 6 -9
3 -16 1 -16 -5z"/>
<path d="M11220 3650 c-13 -8 -13 -10 2 -10 9 0 20 5 23 10 8 13 -5 13 -25 0z"/>
<path d="M887 3633 c-23 -6 -18 -35 6 -39 10 -1 27 6 37 16 10 10 21 16 24 13
3 -3 -2 -12 -12 -19 -15 -12 -15 -13 0 -14 12 0 15 -6 10 -22 -4 -15 -2 -19 7
-13 7 4 10 17 7 30 -4 14 -1 25 7 28 9 4 9 6 -1 6 -7 1 -10 6 -7 11 3 6 -3 10
-13 10 -11 0 -23 -7 -26 -16 -3 -8 -10 -12 -16 -9 -6 4 -8 11 -5 16 4 5 5 8 3
8 -2 -1 -11 -3 -21 -6z m13 -17 c0 -3 -4 -8 -10 -11 -5 -3 -10 -1 -10 4 0 6 5
11 10 11 6 0 10 -2 10 -4z"/>
<path d="M2726 3591 c-2 -3 6 -18 17 -33 23 -28 108 -70 167 -83 72 -14 280
-92 280 -104 0 -3 -43 -7 -96 -8 -140 -4 -216 -43 -355 -182 -42 -42 -85 -84
-96 -94 -36 -32 -35 -77 4 -115 7 -8 11 -18 8 -23 -4 -5 -1 -9 4 -9 6 0 11 -6
11 -13 0 -8 10 -22 21 -33 22 -19 22 -19 11 2 -9 16 -8 21 3 21 8 0 12 -4 9
-9 -3 -4 -1 -8 4 -8 5 0 9 15 9 33 3 177 4 185 47 231 53 57 126 111 195 145
73 36 89 40 196 42 78 2 97 -2 145 -24 80 -37 149 -67 155 -67 12 0 173 -97
233 -140 35 -25 80 -55 100 -67 65 -38 155 -138 192 -212 19 -39 39 -71 43
-71 5 0 6 4 2 9 -9 15 34 24 110 23 76 -1 75 0 -52 34 -40 11 -59 23 -80 51
-16 20 -43 51 -60 69 -39 38 -41 48 -10 39 19 -5 18 -3 -8 19 -16 14 -31 23
-33 21 -3 -2 -13 0 -24 6 -15 8 -17 14 -8 24 9 10 4 15 -22 20 -18 4 -72 34
-120 66 -48 33 -92 59 -97 59 -5 0 -16 8 -23 18 -7 9 -22 19 -33 20 -23 4 -73
42 -55 42 7 0 10 7 6 17 -4 10 2 25 15 40 26 27 25 28 -23 37 -36 7 -37 6 -49
-34 -7 -22 -16 -40 -20 -40 -17 0 -67 23 -112 52 -29 18 -63 31 -86 32 -48 3
-149 53 -174 87 -10 14 -19 38 -21 54 -6 58 -35 31 -36 -32 0 -28 -12 -28 -69
-3 -24 11 -48 20 -55 20 -6 0 -46 18 -89 39 -43 21 -79 35 -81 32z"/>
<path d="M911 3573 c0 -11 3 -13 6 -5 2 6 10 9 15 6 7 -4 8 -2 4 4 -11 18 -26
14 -25 -5z"/>
<path d="M1510 3581 c0 -5 5 -13 10 -16 6 -3 10 -2 10 4 0 5 -4 13 -10 16 -5
3 -10 2 -10 -4z"/>
<path d="M891 3564 c0 -11 3 -14 6 -6 3 7 2 16 -1 19 -3 4 -6 -2 -5 -13z"/>
<path d="M767 3547 c-8 -6 -7 -7 5 -4 9 3 19 3 23 -1 6 -7 10 -8 36 -11 5 0 7
-6 4 -11 -4 -7 -12 -7 -25 0 -29 15 -40 12 -40 -12 0 -16 3 -19 9 -10 5 9 17
11 34 6 17 -4 27 -2 28 5 3 26 4 30 12 38 5 4 7 4 5 -2 -5 -16 29 -58 37 -46
8 14 -3 33 -15 26 -5 -3 -10 2 -12 11 -2 12 -15 17 -46 18 -23 1 -48 -2 -55
-7z"/>
<path d="M913 3521 c0 -11 5 -17 9 -15 11 7 10 34 -1 34 -6 0 -9 -9 -8 -19z"/>
<path d="M10838 3533 c6 -2 18 -2 25 0 6 3 1 5 -13 5 -14 0 -19 -2 -12 -5z"/>
<path d="M10955 3520 l-30 -8 27 -1 c15 0 30 4 33 9 3 6 5 9 3 9 -2 -1 -16 -5
-33 -9z"/>
<path d="M10796 3505 c-9 -10 -15 -24 -12 -31 3 -8 -1 -14 -9 -14 -7 0 -16 -4
-20 -9 -3 -6 4 -8 15 -6 31 6 42 16 36 31 -4 11 -1 12 12 6 12 -7 26 -3 47 9
18 11 24 19 14 19 -9 0 -19 -3 -23 -7 -12 -13 -31 -10 -37 6 -4 11 -8 10 -23
-4z"/>
<path d="M705 3480 c-3 -5 1 -10 9 -10 19 0 21 -16 4 -23 -8 -4 -9 -6 -2 -6
16 -1 37 26 29 39 -8 13 -32 13 -40 0z"/>
<path d="M890 3465 c-11 -13 -10 -14 4 -9 9 3 16 10 16 15 0 13 -6 11 -20 -6z"/>
<path d="M600 3449 c0 -11 5 -17 10 -14 6 3 10 13 10 21 0 8 -4 14 -10 14 -5
0 -10 -9 -10 -21z"/>
<path d="M10925 3460 c-3 -5 -2 -10 4 -10 5 0 13 5 16 10 3 6 2 10 -4 10 -5 0
-13 -4 -16 -10z"/>
<path d="M770 3436 c-17 -12 -20 -77 -5 -88 6 -5 5 -8 -3 -8 -7 0 -10 -5 -6
-11 4 -8 12 -3 21 12 14 24 14 24 10 1 -6 -26 26 -54 51 -45 10 4 13 2 8 -6
-4 -6 -16 -9 -27 -6 -15 5 -19 1 -19 -18 0 -29 -19 -39 -61 -30 -31 6 -52 34
-31 41 7 2 12 8 12 13 0 6 -8 5 -20 -1 -18 -10 -20 -19 -16 -66 3 -51 16 -89
16 -49 0 13 3 15 13 6 16 -13 27 -5 27 21 0 25 12 23 34 -7 20 -27 76 -36 76
-12 0 7 4 6 10 -4 11 -19 59 -14 67 7 3 9 11 10 30 3 37 -14 63 -2 63 27 0 17
4 23 13 18 10 -6 10 -4 0 7 -7 7 -13 20 -13 29 0 13 1 13 10 0 8 -12 10 -11
11 8 2 35 3 40 12 48 4 4 7 19 7 33 0 14 -4 21 -8 16 -4 -6 -20 -12 -37 -13
-16 -1 -32 -7 -34 -13 -4 -13 -61 -72 -62 -64 -1 3 -2 8 -3 13 -1 4 -7 17 -14
30 -7 12 -10 27 -7 32 3 6 2 10 -3 10 -5 0 -8 12 -6 26 1 14 -1 23 -4 19 -4
-3 -7 -13 -7 -21 0 -7 -3 -14 -7 -14 -45 -1 -47 1 -45 26 2 31 -30 49 -53 30z
m18 -31 c-3 -3 -9 2 -12 12 -6 14 -5 15 5 6 7 -7 10 -15 7 -18z m202 -195 c0
-13 -1 -13 -10 0 -5 8 -10 22 -10 30 0 13 1 13 10 0 5 -8 10 -22 10 -30z"/>
<path d="M907 3423 c-10 -9 -9 -23 1 -23 5 0 9 7 9 15 0 17 -1 18 -10 8z"/>
<path d="M620 3406 c0 -17 23 -27 39 -16 13 8 9 12 -21 23 -12 4 -18 1 -18 -7z"/>
<path d="M1402 3390 c0 -14 2 -19 5 -12 2 6 2 18 0 25 -3 6 -5 1 -5 -13z"/>
<path d="M11689 3384 c-1 -5 -2 -13 -4 -19 -1 -5 -3 -18 -3 -28 -2 -13 -7 -17
-21 -12 -11 3 -22 1 -26 -5 -4 -6 4 -10 19 -10 14 0 28 5 31 10 4 6 10 8 15 5
9 -6 6 52 -4 62 -3 3 -7 2 -7 -3z"/>
<path d="M10655 3350 c-22 -16 -46 -29 -52 -30 -22 0 -14 -20 7 -20 12 0 40
18 63 40 49 46 39 52 -18 10z"/>
<path d="M2673 3350 c27 -22 47 -26 47 -10 0 6 -12 15 -26 20 -40 16 -49 12
-21 -10z"/>
<path d="M11577 3356 c-4 -10 -5 -21 -2 -24 9 -9 17 6 13 25 -3 17 -4 17 -11
-1z"/>
<path d="M11512 3338 c2 -6 10 -14 16 -16 7 -2 10 2 6 12 -7 18 -28 22 -22 4z"/>
<path d="M11620 3341 c0 -7 -4 -10 -8 -7 -5 3 -9 -1 -9 -9 0 -8 4 -15 8 -15 9
0 21 31 14 38 -3 3 -5 0 -5 -7z"/>
<path d="M10815 3330 c-3 -6 1 -7 9 -4 18 7 21 14 7 14 -6 0 -13 -4 -16 -10z"/>
<path d="M11545 3313 c-5 -14 -3 -15 6 -6 6 6 19 9 28 6 14 -4 14 -3 1 6 -21
15 -27 14 -35 -6z"/>
<path d="M10736 3295 c-11 -8 -15 -15 -10 -15 6 0 19 7 30 15 10 8 15 14 9 14
-5 0 -19 -6 -29 -14z"/>
<path d="M10465 3275 c-16 -8 -23 -14 -14 -15 8 0 24 7 35 15 23 18 18 18 -21
0z"/>
<path d="M11150 3260 c-12 -7 -10 -9 7 -7 12 0 19 5 17 9 -6 10 -6 10 -24 -2z"/>
<path d="M3043 3230 c-41 -28 -54 -61 -21 -55 20 4 40 18 84 60 l22 20 -24 0
c-13 0 -40 -11 -61 -25z"/>
<path d="M11196 3245 c5 -12 4 -16 -4 -11 -6 3 -14 1 -18 -5 -4 -8 -3 -9 4 -5
7 4 12 2 12 -3 0 -6 -5 -11 -12 -11 -6 0 -8 -3 -5 -7 4 -3 16 3 27 14 17 19
17 23 4 34 -12 10 -13 9 -8 -6z"/>
<path d="M3613 3237 c-3 -7 -3 -9 2 -5 4 4 17 3 27 -3 16 -8 19 -8 16 2 -5 16
-36 20 -45 6z"/>
<path d="M11543 3243 c9 -2 25 -2 35 0 9 3 1 5 -18 5 -19 0 -27 -2 -17 -5z"/>
<path d="M11420 3230 c8 -5 11 -10 5 -10 -5 0 -21 -3 -34 -7 -17 -4 -22 -3
-17 5 4 7 2 12 -3 12 -6 0 -11 -7 -11 -15 0 -22 43 -19 71 5 l24 19 -25 1
c-20 0 -22 -2 -10 -10z"/>
<path d="M11455 3221 c-3 -5 -1 -12 5 -16 5 -3 10 -1 10 5 0 6 5 8 10 5 6 -3
10 -1 10 4 0 13 -27 14 -35 2z"/>
<path d="M1340 3139 c0 -5 5 -7 10 -4 6 3 10 8 10 11 0 2 -4 4 -10 4 -5 0 -10
-5 -10 -11z"/>
<path d="M1230 3113 c0 -10 4 -14 8 -8 4 6 11 13 16 18 5 4 2 7 -7 7 -10 0
-17 -8 -17 -17z"/>
<path d="M1160 3095 c0 -6 7 -20 16 -31 15 -19 15 -18 11 4 -3 12 -1 20 4 16
5 -3 9 2 9 10 0 9 -8 14 -20 13 -11 -1 -20 -6 -20 -12z"/>
<path d="M1121 3071 l-25 -19 31 1 c23 1 29 5 25 19 -2 10 -5 18 -6 18 0 0
-12 -9 -25 -19z"/>
<path d="M3896 3082 c-2 -4 4 -8 14 -9 11 -1 22 2 25 8 4 5 -3 9 -14 9 -11 0
-22 -4 -25 -8z"/>
<path d="M11341 3031 c0 -9 3 -11 5 -4 4 8 13 9 30 3 16 -6 24 -6 24 1 0 6 6
7 13 3 6 -4 9 -3 5 1 -5 5 -24 9 -43 11 -27 1 -35 -2 -34 -15z"/>
<path d="M1203 3030 c-27 -11 -29 -28 -5 -46 24 -19 31 -17 25 6 -3 11 -10 17
-17 13 -6 -3 -2 3 8 15 21 24 21 25 -11 12z"/>
<path d="M914 3013 c-32 -4 -53 -36 -33 -49 5 -3 9 2 9 10 0 14 22 21 51 18 3
-1 6 6 6 14 0 8 -1 13 -1 12 -1 0 -15 -3 -32 -5z"/>
<path d="M11369 3010 c-19 -13 -8 -18 21 -10 19 4 21 7 9 12 -9 3 -22 2 -30
-2z"/>
<path d="M11560 2995 c14 -17 14 -18 -7 -6 -26 13 -30 7 -9 -14 16 -17 66 -31
66 -19 0 15 -14 31 -40 44 -24 13 -24 12 -10 -5z"/>
<path d="M11480 2960 c0 -19 3 -21 12 -12 9 9 9 15 0 24 -9 9 -12 7 -12 -12z"/>
<path d="M11677 2961 c3 -11 -2 -21 -11 -24 -9 -4 -16 -14 -16 -24 1 -17 1
-17 11 0 5 9 17 17 24 17 18 0 19 -9 4 -30 -9 -12 -10 -11 -4 5 4 14 3 17 -5
9 -14 -14 -2 -44 16 -37 9 3 14 20 14 50 0 27 -4 42 -10 38 -5 -3 -10 -1 -10
4 0 6 -4 11 -9 11 -5 0 -7 -8 -4 -19z"/>
<path d="M500 2959 c0 -5 5 -7 10 -4 6 3 10 8 10 11 0 2 -4 4 -10 4 -5 0 -10
-5 -10 -11z"/>
<path d="M10835 2950 c3 -5 8 -10 11 -10 2 0 4 5 4 10 0 6 -5 10 -11 10 -5 0
-7 -4 -4 -10z"/>
<path d="M7420 2942 c0 -12 61 -42 84 -42 9 0 16 -4 16 -9 0 -11 92 -33 100
-24 3 3 -1 8 -9 11 -8 2 -37 17 -66 32 -56 29 -125 47 -125 32z"/>
<path d="M7940 2926 c0 -2 7 -7 16 -10 8 -3 12 -2 9 4 -6 10 -25 14 -25 6z"/>
<path d="M10940 2915 c-11 -13 -8 -15 14 -15 16 0 26 5 26 15 0 8 -6 15 -14
15 -7 0 -19 -7 -26 -15z"/>
<path d="M11073 2912 c1 -14 5 -18 11 -12 7 7 6 14 -1 21 -9 9 -12 7 -10 -9z"/>
<path d="M11496 2913 c-6 -14 -5 -15 5 -6 7 7 10 15 7 18 -3 3 -9 -2 -12 -12z"/>
<path d="M11418 2899 c-17 -18 -16 -18 12 -12 24 4 30 2 30 -11 0 -10 4 -14
10 -11 10 6 -16 56 -29 54 -3 0 -14 -9 -23 -20z"/>
<path d="M11600 2918 c0 -2 16 -18 35 -35 23 -21 35 -26 35 -17 0 8 -8 17 -17
21 -10 3 -26 13 -35 21 -10 8 -18 13 -18 10z"/>
<path d="M11583 2899 c3 -9 0 -22 -6 -28 -8 -8 -8 -14 2 -23 11 -11 14 -10 18
0 3 6 9 10 14 6 16 -9 9 10 -12 36 -12 14 -19 18 -16 9z"/>
<path d="M11340 2884 c0 -8 -5 -12 -11 -9 -6 4 -5 -2 3 -14 11 -18 14 -19 18
-5 6 15 7 15 22 0 12 -12 18 -13 21 -3 3 6 6 2 6 -11 1 -22 2 -22 17 -7 9 9
14 18 12 20 -4 4 -39 12 -60 14 -5 1 -8 8 -8 16 0 8 -4 15 -10 15 -5 0 -10 -7
-10 -16z"/>
<path d="M11557 2886 c-4 -10 -1 -13 8 -9 8 3 12 9 9 14 -7 12 -11 11 -17 -5z"/>
<path d="M2726 2882 c-8 -13 11 -35 23 -28 7 5 9 1 5 -8 -3 -9 -1 -16 5 -16 6
0 11 9 11 20 0 14 -6 20 -17 18 -10 -2 -17 3 -15 10 2 14 -4 16 -12 4z"/>
<path d="M11220 2885 c0 -2 7 -8 15 -15 12 -10 15 -10 15 2 0 8 -7 15 -15 15
-8 0 -15 -1 -15 -2z"/>
<path d="M10840 2865 c0 -8 2 -15 4 -15 2 0 6 7 10 15 3 8 1 15 -4 15 -6 0
-10 -7 -10 -15z"/>
<path d="M7630 2856 c0 -3 9 -10 20 -16 11 -6 20 -8 20 -6 0 3 -9 10 -20 16
-11 6 -20 8 -20 6z"/>
<path d="M10800 2850 c0 -5 5 -10 11 -10 5 0 7 5 4 10 -3 6 -8 10 -11 10 -2 0
-4 -4 -4 -10z"/>
<path d="M11032 2849 c-35 -11 -35 -29 1 -28 14 0 17 3 8 6 -10 4 -5 10 15 19
34 15 23 16 -24 3z"/>
<path d="M11630 2840 c0 -19 3 -21 12 -12 9 9 9 15 0 24 -9 9 -12 7 -12 -12z"/>
<path d="M2779 2843 c0 -5 -2 -16 -4 -25 -2 -10 2 -15 10 -12 7 3 11 14 8 25
-5 19 -12 25 -14 12z"/>
<path d="M11420 2810 c0 -13 18 -22 24 -11 3 5 -1 11 -9 15 -8 3 -15 1 -15 -4z"/>
<path d="M11462 2810 c2 -8 14 -19 26 -25 32 -14 27 -27 -8 -21 -17 2 -28 1
-25 -4 3 -4 -2 -11 -11 -14 -13 -5 -14 -9 -4 -21 10 -12 16 -13 26 -4 11 9 14
8 14 -2 1 -9 6 -7 16 6 8 11 18 19 22 18 11 -4 8 40 -3 53 -5 7 -14 10 -18 7
-4 -3 -15 1 -24 9 -14 11 -16 11 -11 -2z"/>
<path d="M7538 2788 c3 -12 7 -17 10 -10 2 7 7 10 11 8 4 -3 8 1 8 9 0 8 -8
15 -18 15 -13 0 -16 -6 -11 -22z"/>
<path d="M10690 2796 c0 -8 9 -20 21 -26 19 -11 20 -10 10 9 -15 27 -31 36
-31 17z"/>
<path d="M7620 2790 c0 -13 18 -22 24 -11 3 5 -1 11 -9 15 -8 3 -15 1 -15 -4z"/>
<path d="M10880 2785 c0 -8 4 -15 10 -15 5 0 7 7 4 15 -4 8 -8 15 -10 15 -2 0
-4 -7 -4 -15z"/>
<path d="M11329 2792 c0 -4 -2 -15 -4 -24 -2 -11 3 -18 11 -18 9 0 13 4 9 9
-3 5 4 13 16 16 11 4 19 9 16 11 -8 8 -47 13 -48 6z"/>
<path d="M11551 2787 c-6 -6 -11 -20 -11 -31 0 -16 2 -18 9 -7 5 8 14 10 21 6
10 -6 12 -2 8 13 -7 24 10 25 30 2 11 -13 12 -12 3 5 -11 23 -43 29 -60 12z"/>
<path d="M7591 2777 c-8 -10 -7 -14 2 -14 8 0 14 6 14 14 0 7 -1 13 -2 13 -2
0 -8 -6 -14 -13z"/>
<path d="M10561 2776 c-19 -11 -21 -14 -7 -19 9 -4 16 -2 16 3 0 6 3 9 8 9 18
-3 32 2 32 11 0 14 -20 12 -49 -4z"/>
<path d="M10861 2774 c0 -11 3 -14 6 -6 3 7 2 16 -1 19 -3 4 -6 -2 -5 -13z"/>
<path d="M8310 2776 c0 -2 7 -7 16 -10 8 -3 12 -2 9 4 -6 10 -25 14 -25 6z"/>
<path d="M10415 2771 c-3 -5 -2 -12 3 -15 5 -3 9 1 9 9 0 17 -3 19 -12 6z"/>
<path d="M10670 2771 c0 -5 5 -13 10 -16 6 -3 10 -2 10 4 0 5 -4 13 -10 16 -5
3 -10 2 -10 -4z"/>
<path d="M3685 2759 c-4 -6 -5 -12 -2 -15 2 -3 7 2 10 11 7 17 1 20 -8 4z"/>
<path d="M10975 2761 c4 -8 2 -12 -6 -10 -25 3 -37 -1 -42 -14 -3 -8 1 -14 9
-14 8 0 14 4 14 9 0 5 10 8 23 6 24 -3 32 22 8 30 -9 3 -11 0 -6 -7z"/>
<path d="M11155 2747 c-16 -12 -31 -21 -32 -19 -13 11 -33 -2 -33 -21 0 -13
-7 -32 -16 -43 -15 -18 -15 -18 -5 3 20 40 7 87 -14 53 -4 -6 -10 -8 -15 -5
-9 6 -60 -51 -60 -67 0 -6 8 -1 19 10 10 12 21 19 24 15 4 -3 13 0 22 7 9 7
15 8 15 2 0 -6 -4 -12 -10 -14 -6 -2 -6 -9 0 -17 7 -12 17 -6 50 27 22 24 45
40 50 37 9 -6 50 32 50 47 0 13 -13 9 -45 -15z"/>
<path d="M10366 2750 c-19 -6 -19 -7 -1 -13 20 -8 29 -4 24 11 -2 5 -13 6 -23
2z"/>
<path d="M8384 2742 c3 -5 17 -12 32 -15 30 -5 20 8 -15 18 -15 4 -21 3 -17
-3z"/>
<path d="M10315 2740 c3 -5 10 -10 16 -10 5 0 9 5 9 10 0 6 -7 10 -16 10 -8 0
-12 -4 -9 -10z"/>
<path d="M10526 2734 c-4 -10 -13 -13 -27 -9 -15 5 -19 4 -15 -4 5 -8 0 -8
-17 -2 -14 6 -29 6 -38 0 -13 -8 -6 -13 14 -10 4 0 7 -4 7 -10 0 -5 4 -8 9 -5
5 4 11 1 13 -6 3 -9 9 -8 22 5 18 18 41 24 31 8 -3 -5 -1 -12 4 -15 5 -3 9 10
8 29 -1 39 -2 42 -11 19z"/>
<path d="M11685 2733 c-14 -32 -13 -39 6 -39 14 0 19 8 19 28 0 31 -14 37 -25
11z"/>
<path d="M3090 2720 c-12 -7 -10 -9 7 -7 12 0 19 5 17 9 -6 10 -6 10 -24 -2z"/>
<path d="M3612 2721 c-11 -7 -11 -9 0 -14 9 -3 15 1 15 9 0 8 -1 14 -1 14 -1
0 -7 -4 -14 -9z"/>
<path d="M7873 2715 c-4 -5 -2 -7 2 -2 5 4 16 0 26 -9 17 -15 18 -15 16 3 -1
20 -34 26 -44 8z"/>
<path d="M11223 2708 c4 -12 2 -27 -3 -32 -5 -7 1 -22 16 -39 22 -26 24 -27
24 -7 0 14 4 19 12 14 8 -5 9 -2 4 11 -5 15 -4 16 9 5 12 -10 15 -10 15 4 0 9
4 16 9 16 5 0 7 -8 4 -19 -3 -10 1 -22 8 -26 8 -6 10 -4 4 5 -6 10 -4 12 9 7
14 -5 15 -3 6 13 -8 16 -7 19 10 17 12 -1 28 -10 37 -20 16 -17 16 -17 0 -11
-20 7 -22 -7 -4 -25 10 -10 7 -10 -16 -2 -18 7 -26 7 -22 1 3 -6 -3 -14 -14
-18 -17 -6 -18 -9 -6 -26 8 -10 21 -16 29 -13 8 3 16 1 18 -5 5 -15 39 -19 55
-7 6 6 9 18 6 26 -5 12 -3 14 8 8 8 -4 11 -5 7 0 -4 4 -3 14 3 22 19 22 1 15
-22 -9 -12 -13 -19 -17 -15 -10 4 6 3 12 -3 12 -15 0 -1 33 21 48 18 13 26 58
8 47 -5 -3 -10 -1 -10 4 0 6 -7 11 -15 11 -8 0 -15 -5 -15 -10 0 -6 -11 -3
-25 6 -22 15 -26 15 -40 0 -20 -20 -25 -20 -25 0 0 9 5 12 12 8 6 -4 8 -3 5 3
-4 6 -24 7 -51 3 -25 -4 -43 -3 -40 2 3 4 0 8 -7 8 -7 0 -9 -9 -6 -22z m147
-108 c0 -5 -2 -10 -4 -10 -3 0 -8 5 -11 10 -3 6 -1 10 4 10 6 0 11 -4 11 -10z
m25 -30 c3 -5 1 -10 -4 -10 -6 0 -11 5 -11 10 0 6 2 10 4 10 3 0 8 -4 11 -10z"/>
<path d="M8000 2710 c-12 -7 -10 -9 8 -7 12 0 22 5 22 9 0 11 -12 10 -30 -2z"/>
<path d="M10385 2711 c5 -9 3 -12 -6 -9 -8 3 -20 -1 -27 -9 -8 -7 -18 -10 -24
-7 -7 4 -8 2 -4 -4 7 -12 -5 -16 -31 -13 -7 1 -13 -3 -13 -8 0 -17 52 -25 84
-12 25 9 33 9 42 -3 9 -13 13 -13 27 2 10 9 17 11 17 5 0 -6 -7 -18 -15 -27
-19 -19 -2 -32 39 -27 20 2 27 -1 24 -11 -3 -7 -19 -13 -36 -13 -18 0 -32 -3
-32 -7 0 -5 4 -8 10 -8 17 0 -1 -28 -21 -33 -25 -7 -24 -27 2 -27 11 0 18 -4
15 -8 -10 -16 11 -35 29 -25 9 5 16 12 15 14 -1 2 2 12 6 22 5 13 10 15 19 7
11 -9 12 -7 8 9 -3 13 -1 21 6 21 7 0 9 -4 6 -10 -3 -5 3 -10 15 -10 12 0 18
5 15 10 -3 6 -1 10 5 10 6 0 4 10 -6 25 -15 23 -13 30 9 26 4 -1 10 5 13 13 3
9 12 12 22 9 15 -6 15 -4 -1 14 -9 11 -14 22 -11 25 3 3 0 9 -6 13 -6 3 -10 3
-9 -2 4 -22 -3 -31 -21 -26 -15 4 -20 0 -20 -16 0 -26 -18 -26 -47 -2 -25 21
-30 41 -11 41 17 0 4 10 -21 15 -11 2 -21 0 -21 -6 0 -15 -30 -10 -31 6 -3 29
-4 33 -13 42 -5 5 -6 2 -1 -6z m0 -41 c-3 -5 -13 -10 -21 -10 -8 0 -14 5 -14
10 0 6 9 10 21 10 11 0 17 -4 14 -10z m-48 -16 c-3 -3 -12 -4 -19 -1 -8 3 -5
6 6 6 11 1 17 -2 13 -5z"/>
<path d="M3170 2699 c0 -5 5 -7 10 -4 6 3 10 8 10 11 0 2 -4 4 -10 4 -5 0 -10
-5 -10 -11z"/>
<path d="M3300 2698 c0 -4 12 -8 26 -8 17 0 23 -4 18 -12 -4 -7 -3 -9 1 -5 19
17 11 32 -16 32 -16 1 -29 -3 -29 -7z"/>
<path d="M10737 2683 c-2 -13 1 -23 7 -23 6 0 5 -4 -3 -9 -8 -5 -22 -8 -32 -6
-10 2 -20 -3 -23 -11 -3 -9 -11 -12 -17 -8 -8 4 -8 0 0 -15 7 -11 21 -21 31
-21 12 0 20 -7 21 -17 0 -13 3 -11 10 6 9 23 10 23 29 6 21 -19 27 -30 10 -20
-5 3 -18 0 -29 -7 -15 -9 -23 -9 -34 1 -11 8 -17 9 -22 1 -3 -6 -11 -8 -16 -5
-5 3 -6 -1 -3 -10 4 -10 14 -15 25 -12 10 3 20 -1 23 -9 8 -22 24 -17 28 9 3
23 32 31 55 15 7 -6 14 -2 18 11 3 11 9 20 13 19 13 -2 72 26 72 34 0 4 -4 8
-10 8 -15 0 -29 63 -16 73 7 5 5 7 -4 4 -8 -2 -14 -9 -13 -15 2 -8 -5 -9 -21
-2 -13 5 -27 6 -31 2 -4 -4 -5 0 -3 8 2 10 -6 14 -29 15 -25 0 -33 -5 -36 -22z
m126 -36 c3 -8 -1 -14 -9 -14 -8 0 -14 6 -14 14 0 7 4 13 9 13 5 0 11 -6 14
-13z m-36 -32 c4 -4 2 -5 -4 -1 -7 4 -13 2 -13 -4 0 -6 -4 -8 -10 -5 -5 3 -10
10 -10 15 0 10 27 7 37 -5z"/>
<path d="M11568 2692 c7 -5 10 -16 6 -25 -6 -16 -13 -19 -58 -21 -11 -1 -21
-6 -23 -13 -5 -13 32 -27 46 -19 5 4 8 -2 7 -11 -4 -24 -37 -23 -58 1 -19 20
-20 19 -23 -27 -2 -22 2 -26 15 -22 9 3 34 -6 54 -20 21 -14 35 -22 33 -18 -3
5 1 14 9 21 8 7 14 9 14 3 0 -5 8 -7 19 -4 10 3 22 -1 26 -8 5 -8 4 -10 -3 -5
-7 4 -12 3 -12 -2 0 -5 9 -12 20 -15 11 -3 20 -10 20 -17 0 -6 -5 -8 -12 -4
-9 6 -9 3 0 -9 14 -16 8 -42 -8 -32 -4 3 -14 -3 -21 -12 -12 -14 -11 -15 7 -9
15 5 24 2 28 -9 5 -13 1 -15 -15 -10 -15 5 -19 4 -15 -4 5 -7 -2 -11 -16 -12
-19 0 -17 -3 12 -15 19 -8 25 -12 13 -10 -34 6 -56 -33 -38 -67 11 -22 11 -25
-1 -20 -8 3 -14 0 -14 -7 0 -6 -5 -8 -11 -5 -5 4 -9 17 -8 28 2 36 0 47 -12
47 -6 0 -8 -7 -5 -16 3 -8 -1 -22 -9 -31 -8 -8 -12 -19 -9 -25 4 -6 -1 -6 -14
1 -25 13 -43 14 -22 1 8 -5 11 -12 7 -16 -3 -4 -13 -1 -21 5 -8 7 -21 9 -27 5
-7 -4 -9 -3 -5 4 3 6 2 13 -4 17 -5 3 -10 -2 -11 -12 0 -10 -3 -13 -6 -5 -5
12 -33 18 -33 6 0 -19 24 -45 36 -40 9 3 12 1 9 -4 -3 -5 -1 -18 4 -27 6 -10
11 -12 11 -5 0 6 7 12 15 12 8 0 15 5 15 10 0 6 11 10 25 10 14 0 28 6 31 14
3 9 18 14 35 14 16 -1 37 6 47 15 10 9 29 18 42 20 13 2 26 9 28 15 4 14 -14
16 -23 2 -9 -14 -55 -8 -55 8 0 8 9 12 23 10 13 -2 21 2 20 10 -2 6 2 12 8 12
7 0 20 9 30 21 14 16 18 38 18 95 0 49 -4 72 -11 68 -7 -4 -7 0 0 12 5 11 9
39 8 64 -1 41 -3 45 -26 45 -14 0 -33 -7 -44 -15 -22 -18 -19 -18 -39 -1 -20
16 -22 32 -4 27 6 -1 9 -1 5 1 -5 3 -8 11 -8 19 0 8 -8 14 -17 14 -13 0 -15
-2 -5 -8z m60 -107 c-3 -3 -9 2 -12 12 -6 14 -5 15 5 6 7 -7 10 -15 7 -18z
m50 -35 c-15 -24 -22 -19 -13 9 3 12 11 19 16 16 5 -4 3 -14 -3 -25z m-114 12
c3 -5 -1 -9 -9 -9 -8 0 -12 4 -9 9 3 4 7 8 9 8 2 0 6 -4 9 -8z m133 -92 c-2
-11 -7 -23 -12 -27 -4 -5 -5 -2 -1 5 4 6 2 12 -3 12 -6 0 -11 7 -11 15 0 8 7
15 15 15 9 0 14 -8 12 -20z m-227 -230 c0 -5 -2 -10 -4 -10 -3 0 -8 5 -11 10
-3 6 -1 10 4 10 6 0 11 -4 11 -10z"/>
<path d="M10921 2653 c-1 -12 4 -25 9 -28 12 -7 12 2 0 30 -8 19 -9 19 -9 -2z"/>
<path d="M3980 2630 c0 -36 106 -99 137 -81 14 7 13 10 -7 16 -25 8 -38 17
-70 49 -19 19 -60 30 -60 16z"/>
<path d="M10376 2625 c-16 -16 -16 -19 0 -36 23 -25 34 -24 34 4 0 38 -14 51
-34 32z"/>
<path d="M11181 2632 c-1 -7 -5 -10 -11 -7 -5 3 -10 -1 -10 -9 0 -9 5 -16 11
-16 6 0 8 -7 5 -16 -3 -8 -2 -13 3 -10 5 3 12 -2 15 -11 6 -15 9 -15 16 -3 5
8 5 21 1 29 -5 9 -6 22 -3 30 2 8 0 11 -6 7 -6 -3 -13 0 -15 6 -4 10 -6 10 -6
0z"/>
<path d="M8900 2620 c8 -5 20 -10 25 -10 6 0 3 5 -5 10 -8 5 -19 10 -25 10 -5
0 -3 -5 5 -10z"/>
<path d="M11095 2620 c-3 -5 -17 -10 -31 -10 -14 0 -23 -4 -20 -9 3 -5 -4 -11
-17 -15 -12 -3 -23 -1 -25 4 -2 6 -13 10 -24 10 -17 0 -18 -2 -8 -15 11 -13
10 -14 -1 -10 -29 11 -15 -33 16 -50 l30 -17 -25 22 c-23 20 -24 21 -3 15 15
-4 23 -1 26 12 4 15 5 15 6 2 1 -18 51 -33 51 -16 0 6 7 2 15 -9 15 -19 15
-19 8 1 -3 11 -11 26 -17 34 -8 11 -8 13 2 7 6 -4 13 -2 13 3 3 21 4 26 12 39
5 6 6 12 3 12 -3 0 -8 -4 -11 -10z"/>
<path d="M7965 2591 c3 -6 20 -18 37 -27 16 -9 27 -11 23 -5 -3 6 -20 18 -37
27 -16 9 -27 11 -23 5z"/>
<path d="M10920 2562 c-8 -10 -16 -24 -17 -30 -4 -16 14 -15 21 1 3 6 4 0 2
-15 -1 -15 1 -25 5 -22 6 3 9 83 4 84 0 0 -7 -8 -15 -18z"/>
<path d="M11104 2559 c1 -7 10 -13 19 -15 9 -1 15 2 11 7 -3 5 -9 7 -14 4 -4
-3 -11 0 -13 5 -3 6 -4 5 -3 -1z"/>
<path d="M3914 2546 c-10 -27 2 -43 14 -19 8 14 9 24 2 28 -6 3 -13 -1 -16 -9z"/>
<path d="M10310 2543 c0 -26 24 -31 45 -9 12 12 12 15 -1 20 -8 3 -12 2 -9 -3
3 -5 1 -12 -4 -16 -5 -3 -14 3 -20 12 -9 16 -10 16 -11 -4z"/>
<path d="M11175 2550 c3 -5 8 -10 11 -10 2 0 4 5 4 10 0 6 -5 10 -11 10 -5 0
-7 -4 -4 -10z"/>
<path d="M10595 2540 c4 -6 11 -8 16 -5 14 9 11 15 -7 15 -8 0 -12 -5 -9 -10z"/>
<path d="M4138 2533 c7 -3 16 -2 19 1 4 3 -2 6 -13 5 -11 0 -14 -3 -6 -6z"/>
<path d="M10881 2514 c0 -11 3 -14 6 -6 3 7 2 16 -1 19 -3 4 -6 -2 -5 -13z"/>
<path d="M3872 2494 c-27 -19 -46 -59 -43 -92 2 -13 -5 -35 -14 -48 -10 -16
-14 -35 -11 -50 l6 -24 22 20 c12 11 24 20 27 21 3 0 16 2 28 5 12 2 25 -1 28
-6 3 -6 15 -10 26 -10 17 0 18 3 9 20 -6 11 -8 20 -5 20 3 0 -4 17 -15 37 -11
21 -20 49 -21 63 0 14 -4 33 -7 43 -7 16 -9 16 -30 1z"/>
<path d="M10841 2494 c9 -11 8 -14 -5 -14 -9 0 -16 6 -17 13 0 6 -4 3 -9 -8
-8 -19 -9 -19 -9 -1 -1 29 -11 14 -16 -24 -2 -18 -1 -30 2 -26 3 3 17 -4 31
-14 13 -11 36 -20 49 -20 13 0 22 -3 20 -7 -3 -5 12 -9 33 -9 30 -2 37 1 33
13 -3 8 -14 13 -24 10 -16 -4 -16 -2 -6 22 6 14 16 30 22 34 6 5 4 7 -5 4 -8
-2 -20 3 -27 12 -6 9 -14 13 -18 10 -3 -4 2 -15 12 -25 13 -12 14 -19 5 -22
-7 -2 -10 -8 -6 -13 3 -5 0 -9 -5 -9 -6 0 -11 6 -11 14 0 8 -7 16 -15 20 -8 3
-15 11 -15 17 0 8 5 7 17 -2 16 -13 16 -13 0 10 -9 14 -24 26 -32 27 -13 2
-14 -1 -4 -12z m-10 -56 c-11 -10 -13 -10 -7 0 4 6 2 12 -4 12 -6 0 -8 5 -4
11 4 8 9 8 17 0 8 -8 7 -14 -2 -23z"/>
<path d="M8511 2487 c22 -17 109 -55 109 -47 0 12 -73 50 -96 50 -10 0 -15 -1
-13 -3z"/>
<path d="M10655 2469 c-4 -6 -5 -12 -2 -15 2 -3 7 2 10 11 7 17 1 20 -8 4z"/>
<path d="M10998 2466 c-22 -16 -24 -40 -3 -32 10 4 19 -2 24 -18 5 -12 16 -23
25 -24 49 -5 47 -4 31 -29 -9 -12 -14 -23 -13 -24 2 0 12 -2 24 -3 20 -2 21 0
15 46 -1 3 -18 15 -38 25 -21 11 -40 28 -41 38 -3 12 0 15 10 9 10 -6 10 -5
-1 9 -7 9 -14 17 -15 17 0 0 -9 -7 -18 -14z"/>
<path d="M10320 2439 c0 -18 2 -19 15 -9 15 12 12 30 -6 30 -5 0 -9 -10 -9
-21z"/>
<path d="M10393 2450 c-13 -5 -23 -12 -23 -14 0 -3 6 -3 13 -1 16 7 21 -56 5
-66 -7 -5 -19 -3 -27 4 -11 10 -13 8 -7 -11 6 -16 4 -21 -7 -16 -7 2 -20 -2
-27 -10 -10 -13 -9 -20 4 -41 9 -14 22 -25 29 -26 6 0 24 -2 39 -3 17 -1 24 2
19 9 -5 5 -7 20 -5 33 2 13 0 21 -5 17 -5 -3 -13 0 -17 6 -4 7 -3 9 3 6 12 -7
23 14 23 43 0 21 22 32 48 23 14 -5 14 -3 -3 11 -11 10 -14 15 -7 11 18 -9 15
6 -5 21 -21 16 -21 16 -50 4z m-36 -137 c-8 -7 -37 9 -31 19 3 5 12 4 20 -3 8
-6 13 -14 11 -16z"/>
<path d="M11363 2443 c-7 -2 -13 -12 -13 -21 1 -15 2 -15 11 1 5 9 15 17 20
17 6 0 7 -5 3 -12 -4 -7 -3 -8 5 -4 22 14 0 30 -26 19z"/>
<path d="M10595 2431 c22 -11 62 -14 53 -5 -4 3 -21 7 -40 10 -26 3 -29 2 -13
-5z"/>
<path d="M11040 2435 c0 -8 29 -12 39 -5 9 5 4 8 -13 8 -14 0 -26 -2 -26 -3z"/>
<path d="M9175 2420 c3 -4 14 -10 25 -13 11 -3 18 -2 15 3 -3 4 -14 10 -25 13
-11 3 -18 2 -15 -3z"/>
<path d="M10566 2404 c-6 -15 -4 -15 11 -3 10 7 20 15 22 16 2 2 -3 3 -11 3
-9 0 -19 -7 -22 -16z"/>
<path d="M10660 2409 c0 -6 -4 -8 -9 -5 -5 3 -11 -1 -15 -9 -4 -11 2 -15 20
-15 19 0 25 4 21 14 -4 10 -1 13 9 9 7 -3 14 -11 14 -19 0 -8 6 -11 15 -8 22
9 3 37 -29 40 -14 1 -26 -2 -26 -7z"/>
<path d="M11130 2405 c10 -12 10 -15 0 -15 -9 0 -8 -7 4 -25 14 -22 15 -25 1
-25 -8 0 -15 -9 -15 -21 0 -12 -4 -17 -11 -14 -6 4 -5 -2 3 -14 15 -24 40 -29
31 -6 -3 9 -2 15 3 14 28 -5 36 2 31 27 -3 18 -1 22 6 15 6 -6 16 -11 21 -11
6 0 -6 11 -26 25 -22 15 -35 31 -32 39 3 7 -2 16 -12 20 -14 5 -15 4 -4 -9z"/>
<path d="M10363 2403 c-10 -3 -10 -7 0 -18 14 -15 27 -10 27 11 0 14 -6 16
-27 7z"/>
<path d="M10987 2395 c3 -8 9 -12 14 -9 12 7 11 11 -5 17 -10 4 -13 1 -9 -8z"/>
<path d="M10920 2370 c0 -5 5 -10 11 -10 5 0 7 5 4 10 -3 6 -8 10 -11 10 -2 0
-4 -4 -4 -10z"/>
<path d="M8862 2357 c7 -7 28 -19 46 -26 37 -15 52 -32 22 -24 -30 8 -15 -24
21 -42 34 -18 43 -19 33 -3 -5 8 -2 9 9 5 31 -12 18 10 -29 49 -49 42 -68 52
-97 53 -15 1 -16 -1 -5 -12z"/>
<path d="M10712 2363 c-10 -4 -8 -9 5 -18 16 -12 14 -13 -19 -9 -21 2 -38 2
-38 0 0 -3 14 -15 32 -27 17 -13 28 -18 24 -11 -4 7 -3 12 3 12 5 0 11 -5 13
-11 2 -7 9 -10 15 -8 15 6 -19 77 -35 72z"/>
<path d="M10955 2360 c3 -5 8 -10 11 -10 2 0 4 5 4 10 0 6 -5 10 -11 10 -5 0
-7 -4 -4 -10z"/>
<path d="M11225 2359 c-4 -6 -5 -12 -2 -15 2 -3 7 2 10 11 7 17 1 20 -8 4z"/>
<path d="M10281 2344 c0 -11 3 -14 6 -6 3 7 2 16 -1 19 -3 4 -6 -2 -5 -13z"/>
<path d="M9072 2335 c-11 -12 0 -28 69 -100 45 -47 77 -85 71 -85 -6 0 -9 -7
-6 -15 7 -18 4 -18 -30 -5 -21 8 -24 7 -19 -8 5 -11 -8 -5 -35 16 -23 19 -42
38 -42 43 0 12 -46 23 -60 14 -7 -4 2 -14 22 -23 22 -11 33 -24 33 -38 1 -12
6 -28 13 -36 6 -8 9 -18 6 -21 -11 -11 34 -72 108 -144 132 -130 191 -164 227
-130 11 10 13 10 7 0 -5 -9 1 -13 17 -13 28 0 107 -55 114 -79 2 -9 25 -30 50
-45 25 -16 68 -49 96 -73 47 -40 76 -56 63 -34 -6 10 40 7 66 -4 25 -10 13
-25 -15 -19 -12 3 -111 5 -219 5 -197 0 -198 0 -228 25 -16 14 -30 21 -30 15
0 -6 4 -11 10 -11 5 0 7 -13 4 -28 -4 -20 -2 -29 8 -30 65 -6 151 -6 154 0 3
5 14 3 25 -2 13 -7 19 -7 19 0 0 5 5 10 11 10 5 0 7 -4 4 -10 -3 -5 0 -10 9
-10 8 0 21 -3 30 -6 10 -4 16 -1 16 9 0 9 4 19 10 22 6 4 7 -1 3 -12 -6 -16
-5 -17 12 -3 10 8 16 10 12 4 -4 -7 5 -11 25 -12 24 -1 28 2 18 8 -9 6 -10 10
-3 10 6 0 14 -4 18 -10 3 -5 12 -7 20 -4 8 4 12 10 9 15 -3 5 0 9 5 9 6 0 11
-4 11 -9 0 -17 42 -24 51 -10 6 10 9 11 9 2 0 -18 25 -16 43 2 13 13 16 13 21
0 6 -16 36 -21 36 -6 0 5 8 8 18 6 9 -1 16 -7 15 -13 -2 -11 11 -10 39 2 35
16 7 31 -58 33 -43 1 -70 6 -75 14 -4 8 -6 16 -3 18 3 3 9 -1 13 -8 7 -10 13
-11 31 -1 21 11 21 12 3 29 -16 15 -23 16 -60 5 -47 -14 -75 -4 -136 53 -40
37 -94 66 -106 58 -5 -3 -11 -2 -13 2 -9 22 -135 106 -147 98 -5 -3 -11 0 -13
6 -3 10 -44 13 -78 7 -15 -3 -110 72 -148 116 -10 10 -27 30 -39 44 -13 14
-23 31 -23 38 0 8 -7 14 -16 14 -8 0 -12 5 -9 10 3 6 1 10 -5 10 -10 0 -5 37
7 50 18 20 169 -23 286 -81 31 -16 57 -27 57 -23 0 3 -52 30 -115 60 -63 29
-115 59 -115 65 0 6 9 9 20 6 30 -8 24 9 -8 22 -15 6 -33 20 -40 31 -11 19 -9
20 25 21 l38 1 -35 10 c-74 21 -105 34 -100 43 3 6 8 9 11 8 3 -1 23 -4 45 -7
21 -2 48 -7 59 -10 11 -4 7 0 -10 8 -16 8 -55 20 -85 27 -60 13 -88 29 -51 29
l24 0 -26 20 c-30 23 -28 23 -45 5z m637 -699 c16 -17 19 -26 10 -31 -8 -5
-10 -4 -5 3 4 7 -4 17 -21 24 -23 11 -63 44 -63 54 0 8 60 -29 79 -50z"/>
<path d="M10470 2342 c0 -7 -5 -11 -11 -9 -6 1 -14 -4 -16 -10 -3 -7 0 -13 5
-13 14 0 36 29 28 37 -3 3 -6 1 -6 -5z"/>
<path d="M11510 2327 c0 -19 16 -31 24 -18 3 5 -1 14 -9 21 -12 10 -15 10 -15
-3z"/>
<path d="M9220 2314 c0 -2 9 -8 20 -14 11 -6 20 -7 20 -2 0 6 -9 12 -20 15
-11 3 -20 3 -20 1z"/>
<path d="M11304 2300 c0 -9 5 -21 11 -27 9 -8 12 -3 12 16 0 15 -5 28 -12 28
-6 0 -11 -8 -11 -17z"/>
<path d="M9410 2276 c0 -2 7 -6 15 -10 8 -3 15 -1 15 4 0 6 -7 10 -15 10 -8 0
-15 -2 -15 -4z"/>
<path d="M11340 2270 c0 -5 5 -10 10 -10 6 0 9 -5 8 -12 -2 -6 5 -14 15 -16 9
-2 17 2 17 8 0 6 -4 9 -9 5 -5 -3 -12 4 -16 15 -7 20 -25 28 -25 10z"/>
<path d="M10450 2255 c15 -18 36 -20 46 -2 4 6 4 9 0 5 -5 -4 -20 -2 -34 3
-22 8 -23 8 -12 -6z"/>
<path d="M11610 2245 c-13 -15 -5 -39 11 -29 5 3 6 10 3 16 -4 6 0 14 7 19 8
5 9 9 3 9 -6 0 -17 -7 -24 -15z"/>
<path d="M9407 2239 c7 -7 15 -10 18 -7 3 3 -2 9 -12 12 -14 6 -15 5 -6 -5z"/>
<path d="M10617 2236 c-4 -10 -1 -13 9 -9 15 6 19 23 5 23 -5 0 -11 -7 -14
-14z"/>
<path d="M8602 2214 c10 -10 20 -16 22 -13 3 3 -5 11 -17 18 -21 13 -21 12 -5
-5z"/>
<path d="M10310 2220 c0 -5 5 -10 11 -10 5 0 7 5 4 10 -3 6 -8 10 -11 10 -2 0
-4 -4 -4 -10z"/>
<path d="M10455 2220 c-3 -5 1 -10 10 -10 9 0 13 5 10 10 -3 6 -8 10 -10 10
-2 0 -7 -4 -10 -10z"/>
<path d="M10999 2220 c0 -3 -2 -12 -4 -21 -1 -9 3 -16 11 -16 7 0 11 4 8 8 -2
4 0 10 5 13 5 4 12 2 16 -4 3 -5 12 -10 18 -10 7 0 4 6 -5 14 -10 7 -16 15
-13 17 2 3 -5 5 -15 5 -11 0 -20 -3 -21 -6z"/>
<path d="M10865 2209 c-4 -6 -14 -8 -24 -5 -12 5 -12 3 3 -9 19 -14 41 -11 31
5 -3 5 3 11 12 13 16 4 16 5 1 6 -9 0 -20 -4 -23 -10z"/>
<path d="M11102 2210 c2 -18 -4 -23 -12 -10 -5 8 -12 11 -16 7 -11 -11 2 -19
35 -22 21 -2 28 1 24 11 -6 16 13 19 20 4 3 -6 4 -5 3 2 -3 12 -55 20 -54 8z"/>
<path d="M11390 2215 c0 -2 6 -8 13 -14 10 -8 14 -7 14 2 0 8 -6 14 -14 14 -7
0 -13 -1 -13 -2z"/>
<path d="M9490 2199 c26 -17 90 -50 90 -45 0 6 -87 56 -97 56 -4 0 -1 -5 7
-11z"/>
<path d="M10375 2199 c-10 -15 3 -25 16 -12 7 7 7 13 1 17 -6 3 -14 1 -17 -5z"/>
<path d="M10693 2195 c0 -5 18 -10 39 -9 21 0 38 3 38 7 0 4 0 9 0 12 0 3 -9
1 -20 -5 -11 -6 -20 -7 -20 -2 0 4 -8 8 -18 8 -10 0 -19 -5 -19 -11z"/>
<path d="M10940 2204 c0 -6 -12 -10 -27 -8 -28 4 -28 4 -3 -5 32 -10 53 -7 56
8 2 8 1 8 -3 0 -4 -8 -8 -7 -14 2 -5 8 -9 9 -9 3z"/>
<path d="M11300 2200 c0 -6 -4 -8 -10 -5 -5 3 -10 1 -10 -4 0 -13 10 -14 29
-2 9 6 10 11 2 15 -6 4 -11 2 -11 -4z"/>
<path d="M10500 2196 c0 -2 9 -6 20 -9 11 -3 18 -1 14 4 -5 9 -34 13 -34 5z"/>
<path d="M11358 2193 c7 -3 16 -2 19 1 4 3 -2 6 -13 5 -11 0 -14 -3 -6 -6z"/>
<path d="M11465 2190 c3 -5 8 -10 11 -10 2 0 4 5 4 10 0 6 -5 10 -11 10 -5 0
-7 -4 -4 -10z"/>
<path d="M805 2180 c-4 -6 3 -10 14 -10 25 0 27 6 6 13 -8 4 -17 2 -20 -3z"/>
<path d="M8844 2183 c8 -8 105 -7 114 1 3 3 -23 6 -58 6 -35 0 -60 -3 -56 -7z"/>
<path d="M1468 2173 c6 -2 18 -2 25 0 6 3 1 5 -13 5 -14 0 -19 -2 -12 -5z"/>
<path d="M8675 2170 c-7 -11 160 -121 176 -117 11 3 16 0 13 -8 -7 -18 15 -30
29 -16 9 9 8 11 -6 5 -13 -5 -16 -2 -11 9 3 9 -4 25 -15 36 -12 12 -21 25 -21
31 0 9 -37 34 -52 35 -22 1 -8 21 18 27 16 3 -5 5 -49 5 -44 -1 -80 -4 -82 -7z"/>
<path d="M9375 2170 c27 -12 43 -12 25 0 -8 5 -22 9 -30 9 -10 0 -8 -3 5 -9z"/>
<path d="M9604 2128 c3 -15 26 -23 26 -8 0 6 -4 9 -9 6 -5 -4 -12 -1 -14 4 -3
6 -4 5 -3 -2z"/>
<path d="M9660 2095 c14 -8 30 -14 35 -14 6 0 -1 6 -15 14 -14 8 -29 14 -35
14 -5 0 1 -6 15 -14z"/>
<path d="M9710 2076 c0 -3 9 -10 20 -16 11 -6 20 -8 20 -6 0 3 -9 10 -20 16
-11 6 -20 8 -20 6z"/>
<path d="M10073 2059 c28 -16 87 -40 87 -34 0 7 -77 45 -92 45 -8 0 -6 -5 5
-11z"/>
<path d="M9751 2043 c-8 -3 13 -19 53 -39 83 -42 95 -43 33 -4 -26 17 -55 30
-63 30 -8 0 -12 5 -9 10 7 11 6 11 -14 3z"/>
<path d="M9660 2023 c0 -5 14 -8 31 -9 20 -1 26 2 17 7 -16 11 -48 12 -48 2z"/>
<path d="M9964 1951 c3 -5 17 -8 32 -8 18 0 22 2 13 8 -18 11 -52 11 -45 0z"/>
<path d="M10030 1934 c0 -17 51 -45 105 -58 29 -7 29 -7 10 8 -11 8 -28 16
-37 16 -10 0 -18 5 -18 11 0 5 -4 7 -10 4 -5 -3 -10 -1 -10 5 0 6 -4 8 -10 5
-5 -3 -10 -1 -10 4 0 6 -4 11 -10 11 -5 0 -10 -3 -10 -6z"/>
<path d="M9910 1926 c0 -2 7 -7 16 -10 8 -3 12 -2 9 4 -6 10 -25 14 -25 6z"/>
<path d="M7438 1825 c2 -14 6 -25 8 -25 2 0 4 11 4 25 0 14 -4 25 -9 25 -4 0
-6 -11 -3 -25z"/>
<path d="M10100 1816 c0 -3 9 -10 20 -16 11 -6 20 -8 20 -6 0 3 -9 10 -20 16
-11 6 -20 8 -20 6z"/>
<path d="M8651 1631 c7 -10 21 -24 33 -31 15 -9 12 -3 -8 19 -34 35 -41 39
-25 12z"/>
<path d="M8842 1626 c7 -8 15 -12 17 -11 5 6 -10 25 -20 25 -5 0 -4 -6 3 -14z"/>
<path d="M10087 1576 c-20 -18 -23 -26 -14 -37 9 -10 8 -10 -6 1 -13 9 -21 10
-29 2 -13 -13 -1 -35 15 -25 7 4 17 8 22 8 6 0 9 8 9 18 -1 9 2 15 6 12 9 -6
23 12 26 33 3 16 1 16 -29 -12z"/>
<path d="M7370 1570 c-9 -6 -10 -10 -3 -10 6 0 15 5 18 10 8 12 4 12 -15 0z"/>
<path d="M7400 1551 c0 -5 5 -13 10 -16 6 -3 10 -2 10 4 0 5 -4 13 -10 16 -5
3 -10 2 -10 -4z"/>
<path d="M8994 1535 c0 -27 14 -32 35 -12 11 10 12 9 6 -2 -7 -11 -2 -13 24
-8 20 4 30 3 26 -3 -3 -6 1 -10 9 -10 8 0 18 5 22 12 4 7 3 8 -4 4 -7 -4 -12
-1 -12 8 0 12 -11 16 -43 16 -24 0 -47 5 -53 10 -7 7 -10 2 -10 -15z"/>
<path d="M2020 1530 c0 -5 5 -10 10 -10 6 0 10 5 10 10 0 6 -4 10 -10 10 -5 0
-10 -4 -10 -10z"/>
<path d="M2050 1528 c0 -5 6 -8 13 -5 7 3 21 -1 31 -9 11 -7 24 -10 30 -7 16
10 46 11 40 1 -3 -4 -1 -8 5 -8 5 0 12 4 16 10 3 5 13 6 22 3 12 -5 14 -3 8 8
-8 12 -6 12 8 0 9 -7 17 -10 17 -5 0 4 5 3 12 -4 9 -9 15 -9 27 1 12 10 13 9
7 -2 -6 -9 -5 -12 5 -9 8 3 13 11 11 18 -2 11 1 10 13 0 18 -15 76 -15 85 0 3
5 18 3 34 -5 17 -9 33 -12 40 -7 6 5 26 8 44 6 18 -1 30 2 27 7 -4 5 -4 9 0 9
3 0 9 -10 14 -22 l8 -22 18 22 c18 20 42 21 30 1 -4 -5 -2 -9 3 -9 6 0 13 7
16 16 3 8 10 12 16 9 6 -4 8 -10 5 -15 -6 -10 15 -8 33 3 6 5 18 5 25 0 16
-10 97 -11 97 0 0 4 9 3 20 -3 19 -10 24 -6 21 13 -1 5 3 5 9 2 6 -4 9 -14 6
-22 -4 -8 -1 -11 5 -8 6 4 8 14 4 23 -5 14 -4 14 13 -1 15 -13 21 -14 32 -4
10 9 11 9 6 0 -8 -15 10 -18 19 -3 4 6 13 7 22 1 9 -4 32 -5 52 0 72 16 91 18
86 8 -4 -5 -12 -6 -18 -3 -7 4 -7 1 1 -7 11 -12 15 -11 28 5 8 11 14 15 14 10
0 -6 25 -10 55 -9 30 0 55 4 55 8 0 5 5 5 10 2 6 -4 8 -11 5 -16 -4 -5 1 -9
10 -9 9 0 13 5 10 10 -4 7 3 9 19 6 14 -2 27 1 30 7 3 9 5 9 5 0 1 -7 6 -13
12 -13 5 0 8 4 5 8 -3 5 1 9 8 9 8 0 12 -6 9 -14 -3 -7 0 -13 6 -13 6 0 11 4
11 8 0 11 52 8 71 -3 11 -7 11 -5 -1 10 -14 17 -14 18 8 6 13 -7 26 -10 29 -7
4 3 13 0 21 -7 13 -9 14 -9 8 1 -4 6 -3 12 3 12 5 0 13 -5 16 -10 5 -8 12 -7
23 2 12 10 14 10 8 1 -4 -7 -3 -13 3 -13 5 0 13 5 16 10 4 6 13 7 23 1 10 -5
35 -4 63 3 40 11 48 10 57 -3 10 -14 13 -14 25 2 14 17 33 25 23 9 -2 -4 18
-8 44 -8 32 0 47 3 43 10 -4 6 1 5 10 -3 13 -10 20 -11 31 -2 11 9 16 9 22 0
5 -8 3 -9 -6 -4 -9 5 -11 4 -6 -4 6 -8 12 -9 20 -2 9 7 16 7 24 -1 8 -8 15 -8
24 -1 7 6 24 9 36 7 16 -3 22 0 20 8 -4 10 -117 13 -522 15 -403 2 -515 0
-509 -10 5 -9 4 -9 -8 0 -10 8 -55 12 -132 12 -105 0 -116 -1 -111 -17 5 -16
5 -16 -5 0 -10 15 -43 17 -356 17 -232 0 -345 -4 -345 -11z"/>
<path d="M4047 1523 c3 -7 8 -12 11 -9 2 3 13 1 23 -5 11 -5 19 -6 18 -2 -4
22 3 25 17 7 8 -10 13 -13 9 -6 -3 6 -2 12 2 12 5 0 15 -6 22 -12 10 -11 11
-10 6 2 -4 11 1 16 17 17 18 2 20 0 8 -7 -8 -5 -13 -10 -10 -11 3 0 14 -2 25
-4 10 -2 24 0 30 5 6 5 16 5 23 1 15 -9 61 -3 78 10 6 5 20 2 33 -7 18 -13 25
-14 34 -4 10 10 8 12 -7 6 -15 -5 -17 -4 -7 7 9 12 -16 14 -163 15 -148 0
-174 -2 -169 -15z"/>
<path d="M7456 1533 c-13 -13 7 -23 22 -11 12 10 14 10 8 0 -9 -15 15 -12 26
3 5 6 8 5 8 -2 0 -7 7 -10 17 -6 10 4 14 2 10 -4 -3 -5 0 -10 8 -10 17 0 18 6
7 24 -7 11 -95 16 -106 6z"/>
<path d="M9141 1523 c10 -11 10 -14 2 -9 -7 4 -13 2 -13 -3 0 -14 17 -14 26 0
4 8 9 8 17 0 7 -7 15 -7 26 2 12 10 14 9 8 -6 -4 -10 -3 -16 2 -13 5 3 11 15
14 26 5 18 0 20 -45 20 -46 0 -49 -1 -37 -17z"/>
</g>
</svg>
