<?xml version="1.0" standalone="no"?>
<!DOCTYPE svg PUBLIC "-//W3C//DTD SVG 20010904//EN"
 "http://www.w3.org/TR/2001/REC-SVG-20010904/DTD/svg10.dtd">
<svg version="1.0" xmlns="http://www.w3.org/2000/svg"
 width="298.000000pt" height="114.000000pt" viewBox="0 0 298.000000 114.000000"
 preserveAspectRatio="xMidYMid meet">
<metadata>
Created by potrace 1.10, written by Peter Selinger 2001-2011
</metadata>
<g transform="translate(0.000000,114.000000) scale(0.100000,-0.100000)"
fill="#9900ff" stroke="none">
<path d="M500 577 c0 -101 2 -186 5 -188 2 -3 20 -3 40 -1 33 4 35 6 35 43 0
55 16 57 48 6 24 -41 31 -45 70 -49 24 -2 45 -2 47 0 2 2 -19 38 -47 78 l-51
75 29 32 c16 18 38 42 48 55 l19 22 -49 -1 c-43 0 -52 -4 -78 -35 -34 -41 -30
-54 6 -21 14 13 30 21 36 19 7 -2 12 1 12 7 0 6 8 11 18 10 10 0 12 -3 5 -6
-7 -2 -13 -14 -13 -25 0 -16 -3 -18 -13 -9 -16 13 -31 3 -18 -13 9 -11 -10
-48 -23 -47 -3 1 -6 -1 -6 -4 0 -3 0 -8 0 -11 0 -4 8 0 17 7 15 12 16 12 11
-3 -4 -10 2 -22 16 -33 15 -11 22 -25 19 -36 -4 -12 0 -19 10 -19 8 0 17 -7
21 -15 3 -8 1 -15 -3 -15 -5 0 -11 6 -14 13 -3 9 -7 9 -19 -1 -13 -10 -16 -10
-14 0 0 7 -2 13 -6 13 -15 0 -36 40 -27 51 13 16 -2 26 -18 13 -10 -9 -13 -7
-13 10 0 13 -4 19 -11 16 -6 -4 -8 -13 -5 -21 7 -17 -6 -18 -22 -2 -9 9 -12 8
-12 -5 0 -9 5 -17 12 -17 6 0 3 -6 -8 -14 -18 -14 -18 -15 -1 -21 17 -7 17 -8
0 -21 -10 -7 -24 -14 -32 -14 -11 0 -9 4 5 14 18 14 18 15 1 21 -16 7 -16 8
-1 20 16 11 16 13 0 22 -17 10 -17 10 0 17 18 7 18 8 0 22 -17 12 -18 14 -3
14 21 0 22 19 2 26 -14 6 -13 8 2 19 17 13 17 14 0 20 -16 7 -16 8 -1 20 16
11 16 13 -2 23 -17 10 -17 11 -1 12 9 0 17 3 17 6 0 4 -8 13 -17 20 -17 13
-17 13 0 14 9 0 17 3 17 6 0 4 -8 13 -17 20 -16 12 -16 13 -1 14 9 0 19 6 21
13 3 6 6 2 6 -10 1 -12 7 -24 14 -26 9 -4 8 -8 -3 -17 -11 -9 -12 -13 -2 -17
18 -7 15 -23 -5 -23 -17 -1 -17 -1 0 -14 17 -13 17 -14 0 -21 -17 -6 -17 -7 0
-20 16 -12 16 -13 1 -19 -13 -5 -15 -9 -6 -18 20 -20 27 1 30 103 l4 99 -41 0
-41 0 0 -183z"/>
<path d="M1600 567 c0 -95 2 -176 5 -178 2 -3 20 -3 40 -1 l35 4 0 96 c0 52
-3 92 -7 88 -5 -4 -8 -44 -8 -89 0 -77 -1 -82 -22 -85 -13 -2 -23 1 -24 7 0 6
-1 77 -2 158 0 131 1 148 18 157 13 8 19 8 22 -1 3 -7 11 -13 19 -13 7 0 17
-12 20 -27 4 -16 15 -34 25 -40 10 -8 15 -21 12 -33 -3 -12 0 -20 7 -20 21 0
40 -26 28 -38 -15 -15 -3 -26 16 -15 13 7 6 24 -43 103 -57 93 -58 95 -99 98
l-42 3 0 -174z"/>
<path d="M1812 635 c2 -82 0 -105 -10 -105 -7 0 -11 -4 -8 -9 8 -12 57 11 52
24 -2 6 -9 9 -15 7 -6 -1 -11 2 -11 8 0 6 7 10 16 10 9 0 14 6 11 13 -2 6 -10
11 -16 10 -6 -2 -11 2 -11 7 0 6 7 10 16 10 9 0 14 6 11 13 -2 6 -10 11 -16
10 -6 -2 -11 2 -11 7 0 6 7 10 15 10 8 0 15 5 15 10 0 6 -7 10 -15 10 -8 0
-15 5 -15 10 0 6 7 10 15 10 21 0 19 18 -2 22 -15 3 -16 5 -3 10 9 3 25 -1 35
-9 17 -12 18 -15 5 -23 -13 -9 -13 -11 0 -20 13 -9 13 -11 0 -21 -12 -8 -12
-12 -2 -16 10 -4 10 -8 0 -21 -11 -12 -11 -16 0 -20 10 -3 10 -7 0 -20 -11
-12 -11 -16 0 -20 10 -3 10 -7 0 -20 -11 -12 -11 -16 0 -20 10 -3 10 -7 0 -20
-11 -12 -11 -16 0 -20 10 -3 10 -7 0 -20 -10 -12 -10 -16 -1 -19 10 -4 9 -8
-1 -19 -18 -18 -34 -18 -52 0 -9 10 -10 17 -4 21 11 7 3 28 -8 22 -4 -2 -15 4
-24 15 -10 10 -13 18 -8 18 6 0 10 8 10 17 0 13 -3 14 -12 5 -9 -9 -14 -6 -23
11 -7 13 -8 24 -2 28 5 4 6 12 2 18 -5 9 -10 9 -20 1 -9 -8 -13 -7 -11 2 0 7
-3 13 -7 13 -5 0 -13 8 -18 18 -6 9 -14 15 -20 12 -14 -9 -11 -23 6 -27 8 -2
41 -46 73 -98 58 -93 59 -95 100 -98 l42 -3 0 175 0 176 -41 0 -41 0 4 -105z"/>
<path d="M1940 567 c0 -96 2 -176 5 -178 2 -3 20 -3 40 -1 l35 4 0 70 0 70 68
-4 67 -3 2 33 1 32 -69 0 c-44 0 -69 -4 -69 -11 0 -6 9 -9 20 -6 10 3 18 0 17
-5 -1 -6 4 -13 11 -15 6 -3 12 1 12 9 0 8 9 14 20 14 11 0 20 -6 20 -12 0 -7
6 -14 13 -17 6 -2 -8 -4 -33 -4 -25 -1 -51 4 -57 9 -9 7 -15 5 -19 -6 -3 -9
-12 -16 -20 -16 -8 0 -14 -4 -14 -10 0 -5 5 -10 11 -10 8 0 7 -6 -2 -17 -11
-13 -11 -17 -1 -21 10 -3 10 -7 0 -20 -10 -12 -10 -16 -1 -19 20 -7 -14 -35
-35 -30 -16 4 -16 5 1 6 9 0 17 8 17 17 0 10 -6 14 -15 10 -8 -3 -15 -1 -15 4
0 6 7 10 16 10 9 0 14 6 11 13 -2 6 -10 11 -16 10 -6 -2 -11 2 -11 7 0 6 7 10
16 10 9 0 14 6 11 13 -2 6 -10 11 -16 10 -6 -2 -11 2 -11 7 0 6 7 10 16 10 9
0 14 6 11 13 -2 6 -10 11 -16 9 -6 -1 -11 5 -11 13 0 9 6 12 16 8 12 -4 15 -2
12 8 -3 8 -11 13 -17 12 -6 -2 -11 2 -11 7 0 6 7 10 15 10 8 0 15 5 15 10 0 6
-7 10 -15 10 -8 0 -15 5 -15 10 0 6 7 10 15 10 8 0 15 5 15 10 0 6 -7 10 -15
10 -8 0 -15 5 -15 10 0 6 7 10 15 10 8 0 15 5 15 10 0 6 -8 10 -17 10 -13 0
-14 3 -5 12 8 8 15 8 26 -1 9 -7 21 -9 28 -5 19 12 38 14 38 3 0 -5 7 -9 15
-9 8 0 15 5 15 10 0 15 38 12 43 -2 3 -10 7 -10 19 0 14 11 16 9 14 -11 -1
-21 -5 -23 -51 -22 -27 1 -60 -2 -72 -6 -14 -5 -23 -4 -26 4 -2 7 -8 8 -13 3
-5 -5 -4 -11 4 -13 10 -4 10 -8 1 -20 -10 -11 -10 -16 0 -23 9 -5 10 -10 2
-14 -16 -10 -14 -26 4 -26 11 0 15 11 15 40 l0 40 75 0 75 0 0 35 0 35 -115 0
-115 0 0 -173z"/>
<path d="M2190 705 l0 -35 50 0 50 0 0 -140 0 -140 40 0 40 0 0 140 0 140 53
0 52 0 -1 32 -1 33 -141 3 -142 3 0 -36z m60 13 c0 -4 7 -8 15 -8 8 0 15 4 15
9 0 10 19 9 38 -2 6 -5 18 -5 25 0 18 11 37 12 37 2 0 -5 7 -9 15 -9 8 0 15 5
15 10 0 16 37 11 44 -6 10 -25 -4 -36 -38 -30 -58 10 -63 -3 -62 -152 1 -122
-3 -151 -18 -119 -5 10 -7 10 -12 0 -15 -32 -19 -3 -18 119 1 149 -4 162 -62
152 -35 -6 -52 9 -35 30 12 14 41 17 41 4z"/>
<path d="M2220 700 c0 -5 5 -10 10 -10 6 0 10 5 10 10 0 6 -4 10 -10 10 -5 0
-10 -4 -10 -10z"/>
<path d="M2280 700 c0 -5 7 -10 15 -10 8 0 15 5 15 10 0 6 -7 10 -15 10 -8 0
-15 -4 -15 -10z"/>
<path d="M2350 700 c0 -5 4 -10 9 -10 6 0 13 5 16 10 3 6 -1 10 -9 10 -9 0
-16 -4 -16 -10z"/>
<path d="M2420 700 c0 -5 5 -10 10 -10 6 0 10 5 10 10 0 6 -4 10 -10 10 -5 0
-10 -4 -10 -10z"/>
<path d="M2320 680 c0 -5 5 -10 10 -10 6 0 10 5 10 10 0 6 -4 10 -10 10 -5 0
-10 -4 -10 -10z"/>
<path d="M2320 640 c0 -5 5 -10 10 -10 6 0 10 5 10 10 0 6 -4 10 -10 10 -5 0
-10 -4 -10 -10z"/>
<path d="M2326 611 c-4 -7 -5 -15 -2 -18 9 -9 19 4 14 18 -4 11 -6 11 -12 0z"/>
<path d="M2320 565 c0 -8 5 -15 10 -15 6 0 10 7 10 15 0 8 -4 15 -10 15 -5 0
-10 -7 -10 -15z"/>
<path d="M2320 520 c0 -5 5 -10 10 -10 6 0 10 5 10 10 0 6 -4 10 -10 10 -5 0
-10 -4 -10 -10z"/>
<path d="M2320 480 c0 -5 5 -10 10 -10 6 0 10 5 10 10 0 6 -4 10 -10 10 -5 0
-10 -4 -10 -10z"/>
<path d="M2326 451 c-4 -7 -5 -15 -2 -18 9 -9 19 4 14 18 -4 11 -6 11 -12 0z"/>
<path d="M1018 680 c4 -25 1 -30 -17 -30 -17 0 -21 -6 -21 -30 0 -25 4 -30 25
-30 24 0 32 10 18 23 -3 4 -12 2 -20 -5 -11 -8 -12 -7 -7 6 3 9 12 16 20 16 9
0 14 11 14 30 0 17 4 30 9 30 5 0 16 2 24 6 11 4 14 -3 11 -31 -2 -32 0 -35
18 -29 13 4 18 2 14 -4 -4 -6 2 -15 11 -21 16 -9 16 -10 1 -11 -9 0 -20 5 -23
10 -7 12 -25 4 -25 -11 0 -5 16 -9 35 -9 32 0 35 2 35 30 0 26 -4 30 -26 30
-23 0 -26 3 -22 30 4 29 3 30 -37 30 -40 0 -41 -1 -37 -30z"/>
<path d="M1630 700 c0 -5 5 -10 10 -10 6 0 10 5 10 10 0 6 -4 10 -10 10 -5 0
-10 -4 -10 -10z"/>
<path d="M2020 700 c0 -5 4 -10 9 -10 6 0 13 5 16 10 3 6 -1 10 -9 10 -9 0
-16 -4 -16 -10z"/>
<path d="M2090 700 c0 -5 5 -10 10 -10 6 0 10 5 10 10 0 6 -4 10 -10 10 -5 0
-10 -4 -10 -10z"/>
<path d="M1660 680 c0 -5 7 -10 15 -10 8 0 15 5 15 10 0 6 -7 10 -15 10 -8 0
-15 -4 -15 -10z"/>
<path d="M1040 660 c0 -5 5 -10 10 -10 6 0 10 5 10 10 0 6 -4 10 -10 10 -5 0
-10 -4 -10 -10z"/>
<path d="M1630 660 c0 -5 5 -10 10 -10 6 0 10 5 10 10 0 6 -4 10 -10 10 -5 0
-10 -4 -10 -10z"/>
<path d="M816 645 c-101 -35 -82 -126 32 -158 30 -9 52 -11 50 -5 -2 5 -7 9
-12 8 -4 -1 -13 6 -20 16 -9 12 -15 14 -20 6 -11 -18 -26 -14 -19 4 4 12 0 14
-23 9 -20 -5 -25 -4 -15 3 14 10 6 36 -9 27 -9 -6 -19 25 -13 43 3 6 11 12 18
12 7 0 15 4 17 9 2 4 12 11 23 15 16 5 21 2 21 -14 0 -11 -4 -20 -8 -20 -4 0
-8 5 -8 11 0 5 -4 7 -10 4 -17 -10 -11 -25 10 -25 17 0 45 32 35 41 -2 2 7 4
20 4 13 0 23 -4 22 -10 -1 -5 6 -9 16 -9 9 1 17 -4 17 -11 0 -7 6 -16 13 -18
7 -3 6 -6 -5 -6 -9 -1 -20 4 -23 9 -5 8 -11 7 -21 -1 -24 -20 -16 -29 26 -29
47 0 52 15 18 55 -30 34 -84 46 -132 30z"/>
<path d="M1189 621 c-41 -42 -38 -61 10 -61 25 0 41 5 45 15 6 17 56 21 56 4
0 -6 5 -9 11 -7 13 4 12 23 -1 23 -6 0 -15 6 -19 14 -7 11 -14 10 -39 -8 -34
-24 -43 -26 -59 -10 -9 9 -9 15 0 23 18 18 47 27 44 14 -1 -6 4 -13 11 -15 6
-3 12 1 12 9 0 8 9 14 20 14 11 0 20 -6 20 -13 0 -16 12 -17 29 0 11 10 13 9
8 -5 -4 -11 0 -21 10 -27 14 -7 17 -27 18 -100 1 -72 -1 -89 -11 -80 -8 7 -14
7 -19 -1 -3 -5 -11 -10 -17 -10 -7 0 -6 5 1 14 8 10 9 16 1 21 -5 3 -13 0 -16
-9 -3 -8 -12 -12 -20 -9 -8 3 -14 0 -14 -6 0 -13 -37 -15 -45 -1 -3 5 -13 6
-22 3 -11 -4 -14 -3 -9 5 4 7 0 15 -9 18 -14 6 -14 8 1 19 16 11 16 13 0 22
-17 9 -17 11 -1 16 9 4 13 12 9 18 -4 8 -3 9 5 5 6 -4 17 -4 24 2 24 18 47 22
47 7 0 -9 -6 -12 -15 -9 -8 4 -17 -1 -21 -10 -3 -9 -10 -14 -14 -11 -5 3 -11
1 -14 -4 -12 -18 15 -23 34 -6 11 10 31 15 49 13 17 -1 30 2 30 7 0 6 -7 9
-15 7 -8 -2 -14 4 -14 11 0 8 6 14 14 13 8 0 16 3 18 9 4 12 -64 8 -110 -6
-37 -12 -52 -35 -52 -77 0 -47 30 -76 76 -75 22 1 65 2 98 2 56 0 58 1 52 23
-3 13 -6 60 -6 106 0 75 -2 85 -25 107 -20 21 -34 25 -80 25 -49 0 -60 -4 -86
-29z"/>
<path d="M1421 523 c0 -70 2 -129 4 -133 2 -3 20 -4 39 -2 l36 4 0 84 c0 66 3
86 15 90 8 4 15 10 15 15 0 5 -7 9 -15 9 -8 0 -15 -7 -15 -16 0 -13 -3 -14
-14 -5 -10 8 -16 9 -21 1 -3 -5 1 -13 9 -16 21 -8 20 -24 -1 -24 -17 -1 -17
-1 0 -14 17 -13 17 -14 0 -21 -17 -6 -17 -7 0 -20 17 -12 17 -13 0 -20 -17 -6
-17 -7 -1 -19 15 -11 15 -13 -3 -24 -27 -17 -47 -15 -23 2 18 14 18 15 1 21
-16 7 -16 8 -1 20 16 11 16 13 0 22 -17 10 -17 10 0 17 18 7 18 8 0 22 -17 12
-18 14 -3 14 21 0 22 19 2 26 -14 6 -13 8 1 19 16 11 16 13 0 22 -17 9 -17 11
-1 16 9 4 14 11 11 16 -3 5 2 7 13 4 10 -3 22 0 25 6 5 7 -7 11 -33 11 l-41 0
1 -127z"/>
<path d="M1508 636 c-10 -7 -15 -16 -11 -19 11 -12 23 -8 23 7 0 19 37 9 45
-11 4 -13 3 -14 -9 -4 -10 8 -16 9 -21 1 -9 -15 3 -30 26 -30 15 0 19 7 19 35
0 32 -3 35 -27 35 -16 0 -36 -7 -45 -14z"/>
<path d="M1660 640 c0 -5 4 -10 9 -10 6 0 13 5 16 10 3 6 -1 10 -9 10 -9 0
-16 -4 -16 -10z"/>
<path d="M1636 631 c-4 -7 -5 -15 -2 -18 9 -9 19 4 14 18 -4 11 -6 11 -12 0z"/>
<path d="M1700 624 c0 -8 5 -12 10 -9 6 4 8 11 5 16 -9 14 -15 11 -15 -7z"/>
<path d="M1040 620 c0 -5 5 -10 10 -10 6 0 10 5 10 10 0 6 -4 10 -10 10 -5 0
-10 -4 -10 -10z"/>
<path d="M876 613 c-11 -11 -6 -23 9 -23 8 0 15 4 15 9 0 13 -16 22 -24 14z"/>
<path d="M1205 609 c-10 -15 3 -25 16 -12 7 7 7 13 1 17 -6 3 -14 1 -17 -5z"/>
<path d="M1466 612 c-3 -6 -1 -14 5 -17 15 -10 25 3 12 16 -7 7 -13 7 -17 1z"/>
<path d="M776 591 c-4 -5 -2 -12 3 -15 5 -4 12 -2 15 3 4 5 2 12 -3 15 -5 4
-12 2 -15 -3z"/>
<path d="M1636 591 c-4 -7 -5 -15 -2 -18 9 -9 19 4 14 18 -4 11 -6 11 -12 0z"/>
<path d="M1040 580 c0 -5 5 -10 10 -10 6 0 10 5 10 10 0 6 -4 10 -10 10 -5 0
-10 -4 -10 -10z"/>
<path d="M615 569 c-10 -15 3 -25 16 -12 7 7 7 13 1 17 -6 3 -14 1 -17 -5z"/>
<path d="M810 565 c0 -8 7 -15 15 -15 8 0 15 -5 15 -11 0 -6 9 -9 20 -6 11 3
18 1 15 -3 -9 -15 17 -23 27 -9 7 11 8 10 6 -5 -2 -10 3 -21 10 -23 6 -3 12 0
12 6 0 6 4 11 9 11 5 0 7 -9 4 -20 -3 -12 0 -20 7 -20 10 0 10 -3 0 -15 -6 -8
-9 -19 -5 -25 9 -14 -8 -13 -24 3 -11 10 -13 8 -8 -10 5 -23 -7 -31 -18 -13
-4 6 -11 8 -16 4 -5 -3 -6 -10 -3 -16 8 -13 -39 1 -47 15 -4 5 -11 7 -17 3 -5
-3 -13 1 -16 10 -3 8 -10 13 -15 10 -5 -3 -11 3 -14 15 -4 16 -3 18 8 9 8 -7
19 -9 25 -5 5 3 10 -1 10 -9 0 -9 6 -16 14 -16 8 0 16 -5 18 -10 4 -12 58 10
58 23 0 4 7 7 15 7 16 0 20 12 8 23 -3 4 -17 -2 -29 -14 -26 -24 -74 -20 -74
6 0 11 -11 15 -40 15 -49 0 -52 -16 -12 -61 74 -83 243 -13 191 79 -10 19 -31
33 -69 45 -30 10 -56 23 -58 28 -6 15 -22 10 -22 -6z"/>
<path d="M1021 503 c-1 -100 15 -126 77 -121 34 3 37 6 40 36 3 26 0 32 -17
34 -12 0 -26 1 -33 2 -6 1 -13 -5 -16 -13 -3 -9 1 -12 9 -9 8 2 21 -3 31 -13
15 -16 15 -17 -3 -22 -13 -4 -19 0 -19 11 0 12 -3 13 -12 4 -18 -18 -27 -14
-20 10 4 17 2 20 -11 15 -11 -4 -17 -1 -17 8 0 9 6 12 16 8 12 -4 15 -2 12 8
-3 8 -11 13 -17 12 -6 -2 -11 11 -11 32 0 26 3 33 15 29 8 -4 15 -1 15 5 0 6
-6 11 -14 11 -8 0 -17 8 -19 18 -3 9 -5 -20 -6 -65z"/>
<path d="M1079 578 c-6 -15 -5 -68 2 -68 5 0 9 16 9 35 0 28 -6 45 -11 33z"/>
<path d="M1336 571 c-4 -5 -2 -12 3 -15 5 -4 12 -2 15 3 4 5 2 12 -3 15 -5 4
-12 2 -15 -3z"/>
<path d="M1996 571 c-4 -7 -5 -15 -2 -18 9 -9 19 4 14 18 -4 11 -6 11 -12 0z"/>
<path d="M586 551 c-4 -7 -5 -15 -2 -18 9 -9 19 4 14 18 -4 11 -6 11 -12 0z"/>
<path d="M1636 551 c-4 -7 -5 -15 -2 -18 9 -9 19 4 14 18 -4 11 -6 11 -12 0z"/>
<path d="M1336 531 c-4 -5 -2 -12 3 -15 5 -4 12 -2 15 3 4 5 2 12 -3 15 -5 4
-12 2 -15 -3z"/>
<path d="M545 520 c3 -5 10 -10 16 -10 5 0 9 5 9 10 0 6 -7 10 -16 10 -8 0
-12 -4 -9 -10z"/>
<path d="M1636 511 c-4 -7 -5 -15 -2 -18 9 -9 19 4 14 18 -4 11 -6 11 -12 0z"/>
<path d="M1826 512 c-3 -6 -1 -14 5 -17 15 -10 25 3 12 16 -7 7 -13 7 -17 1z"/>
<path d="M1040 500 c0 -5 5 -10 10 -10 6 0 10 5 10 10 0 6 -4 10 -10 10 -5 0
-10 -4 -10 -10z"/>
<path d="M1076 491 c-4 -7 -5 -15 -2 -18 9 -9 19 4 14 18 -4 11 -6 11 -12 0z"/>
<path d="M1336 491 c-4 -5 -2 -12 3 -15 5 -4 12 -2 15 3 4 5 2 12 -3 15 -5 4
-12 2 -15 -3z"/>
<path d="M1796 491 c-4 -5 -2 -12 3 -15 5 -4 12 -2 15 3 4 5 2 12 -3 15 -5 4
-12 2 -15 -3z"/>
<path d="M646 471 c-4 -5 -2 -12 3 -15 5 -4 12 -2 15 3 4 5 2 12 -3 15 -5 4
-12 2 -15 -3z"/>
<path d="M1300 471 c0 -19 -40 -34 -56 -21 -16 14 -48 5 -39 -10 5 -8 12 -7
23 2 13 11 15 11 10 -4 -4 -9 -4 -18 -1 -21 7 -8 88 39 86 49 -2 13 -23 17
-23 5z"/>
<path d="M1636 471 c-4 -7 -5 -15 -2 -18 9 -9 19 4 14 18 -4 11 -6 11 -12 0z"/>
<path d="M1826 472 c-3 -6 -1 -14 5 -17 15 -10 25 3 12 16 -7 7 -13 7 -17 1z"/>
<path d="M1336 451 c-4 -5 -2 -12 3 -15 5 -4 12 -2 15 3 4 5 2 12 -3 15 -5 4
-12 2 -15 -3z"/>
<path d="M1630 425 c0 -8 5 -15 10 -15 6 0 10 7 10 15 0 8 -4 15 -10 15 -5 0
-10 -7 -10 -15z"/>
<path d="M1826 431 c-4 -5 -2 -12 3 -15 5 -4 12 -2 15 3 4 5 2 12 -3 15 -5 4
-12 2 -15 -3z"/>
</g>
</svg>
